<?xml version="1.0" encoding="UTF-8"?>
<!-- Created with Inkscape (http://www.inkscape.org/) -->
<svg width="52.917mm" height="79.375mm" version="1.1" viewBox="0 0 52.917 79.375" xmlns="http://www.w3.org/2000/svg" xmlns:xlink="http://www.w3.org/1999/xlink">
 <defs>
  <linearGradient id="linearGradient1836" x1="235.33" x2="264.45" y1="-117.29" y2="-97.066" gradientTransform="matrix(.28788 0 0 .28788 -98.991 68.029)" gradientUnits="userSpaceOnUse" xlink:href="#linearGradient31696-2"/>
  <linearGradient id="linearGradient31696-2">
   <stop stop-color="#0f52ba" offset="0"/>
   <stop stop-color="#578cdc" offset="1"/>
  </linearGradient>
  <linearGradient id="linearGradient1838" x1="195.74" x2="202.06" y1="155.22" y2="160.16" gradientTransform="rotate(41.129 274.55 -173.96)" gradientUnits="userSpaceOnUse" xlink:href="#linearGradient32937"/>
  <linearGradient id="linearGradient32937">
   <stop stop-color="#50c878" offset="0"/>
   <stop stop-color="#1ce678" offset="1"/>
  </linearGradient>
  <linearGradient id="linearGradient1840" x1="235.33" x2="264.45" y1="-117.29" y2="-97.066" gradientTransform="matrix(.28788 0 0 .28788 -115.76 38.887)" gradientUnits="userSpaceOnUse" xlink:href="#linearGradient31696-2"/>
  <linearGradient id="linearGradient1842" x1="256.38" x2="262.77" y1="-17.278" y2="-32.47" gradientTransform="matrix(.28211 .40289 -.40289 .28211 -70.624 -68.219)" gradientUnits="userSpaceOnUse" xlink:href="#linearGradient53857"/>
  <linearGradient id="linearGradient53857">
   <stop stop-color="#901403" offset="0"/>
   <stop stop-color="#ec2006" offset="1"/>
  </linearGradient>
  <linearGradient id="linearGradient1844" x1="195.74" x2="202.06" y1="155.22" y2="160.16" gradientTransform="translate(-166.36 -136.72)" gradientUnits="userSpaceOnUse" xlink:href="#linearGradient32937"/>
  <linearGradient id="linearGradient1846" x1="235.33" x2="264.45" y1="-117.29" y2="-97.066" gradientTransform="matrix(.28788 0 0 .28788 -134.28 -2.8845)" gradientUnits="userSpaceOnUse" xlink:href="#linearGradient31696-2"/>
  <linearGradient id="linearGradient1848" x1="256.38" x2="262.77" y1="-17.278" y2="-32.47" gradientTransform="matrix(.43316 .23299 -.23299 .43316 -83.865 12.499)" gradientUnits="userSpaceOnUse" xlink:href="#linearGradient53857"/>
  <linearGradient id="linearGradient1850" x1="195.74" x2="202.06" y1="155.22" y2="160.16" gradientTransform="translate(-189.66 -73.325)" gradientUnits="userSpaceOnUse" xlink:href="#linearGradient32937"/>
  <linearGradient id="linearGradient1852" x1="235.33" x2="264.45" y1="-117.29" y2="-97.066" gradientTransform="matrix(.28788 0 0 .28788 -88.696 115.76)" gradientUnits="userSpaceOnUse" xlink:href="#linearGradient31696-2"/>
  <linearGradient id="linearGradient1854" x1="256.38" x2="262.77" y1="-17.278" y2="-32.47" gradientTransform="matrix(.40919 -.2729 .2729 .40919 -82.735 153.34)" gradientUnits="userSpaceOnUse" xlink:href="#linearGradient53857"/>
 </defs>
 <g transform="translate(11.102 -10.796)">
  <g>
   <path x="-11.102468" y="10.795778" width="52.916668" height="79.375" d="m-8.4566 10.796h47.625a2.6458 2.6458 45 0 1 2.6458 2.6458v74.083a2.6458 2.6458 135 0 1-2.6458 2.6458h-47.625a2.6458 2.6458 45 0 1-2.6458-2.6458v-74.083a2.6458 2.6458 135 0 1 2.6458-2.6458z" fill="#f4f4f4" stroke-width=".20646"/>
   <ellipse transform="rotate(-34.077)" cx="-26.925" cy="37.115" rx="5" ry="3.5917" fill="url(#linearGradient1836)" opacity=".8"/>
   <path d="m-4.7739 26.875 3.3501 2.0282a2 2 166.19 0 0 2.7467-0.67513l2.0282-3.3501a2 2 76.19 0 0-0.67513-2.7467l-3.3501-2.0281a2 2 166.19 0 0-2.7467 0.67513l-2.0281 3.3501a2 2 76.19 0 0 0.67513 2.7467z" fill="url(#linearGradient1838)" opacity=".8"/>
   <ellipse transform="rotate(238.76)" cx="-43.695" cy="7.9719" rx="5" ry="3.5917" fill="url(#linearGradient1840)" opacity=".8"/>
   <path d="m15.296 25.001 2.2609 3.2288a1.2775 1.2775 77.499 0 1 0.21164 0.95459l-0.43013 2.4396a1.2775 1.2775 122.5 0 1-0.52535 0.82465 1.0122 1.0122 173.88 0 1-0.77028 0.08258l-5.9214-1.044a0.52917 0.52917 54.999 0 1-0.42925-0.61301l1.044-5.9214a1.2775 1.2775 122.5 0 1 0.52535-0.82465 1.0122 1.0122 173.88 0 1 0.77029-0.08259l2.4396 0.43013a1.2775 1.2775 32.499 0 1 0.82465 0.52535z" fill="url(#linearGradient1842)" opacity=".8"/>
   <path d="m29.893 24.33 3.8574-0.67591a2 2 125.06 0 0 1.6248-2.3152l-0.67591-3.8574a2 2 35.061 0 0-2.3152-1.6248l-3.8574 0.67591a2 2 125.06 0 0-1.6248 2.3152l0.67591 3.8574a2 2 35.061 0 0 2.3152 1.6248z" fill="url(#linearGradient1844)" opacity=".8"/>
   <ellipse transform="rotate(242.87)" cx="-62.212" cy="-33.799" rx="5" ry="3.5917" fill="url(#linearGradient1846)" opacity=".8"/>
   <path d="m34.797 57.125 3.4713 1.8672a1.2775 1.2775 50.776 0 1 0.6183 0.75746l0.71285 2.3724a1.2775 1.2775 95.776 0 1-0.0984 0.97281 1.0122 1.0122 147.16 0 1-0.65087 0.42015l-5.7584 1.7303a0.52917 0.52917 28.276 0 1-0.65906-0.35451l-1.7302-5.7584a1.2775 1.2775 95.776 0 1 0.0984-0.97281 1.0122 1.0122 147.16 0 1 0.65088-0.42015l2.3724-0.71285a1.2775 1.2775 5.7759 0 1 0.97281 0.0984z" fill="url(#linearGradient1848)" opacity=".8"/>
   <path d="m6.5943 87.721 3.8574-0.67591a2 2 125.06 0 0 1.6248-2.3152l-0.67591-3.8574a2 2 35.061 0 0-2.3152-1.6248l-3.8574 0.67591a2 2 125.06 0 0-1.6248 2.3152l0.67591 3.8574a2 2 35.061 0 0 2.3152 1.6248z" fill="url(#linearGradient1850)" opacity=".8"/>
   <ellipse transform="rotate(-34.077)" cx="-16.631" cy="84.843" rx="5" ry="3.5917" fill="url(#linearGradient1852)" opacity=".8"/>
   <path d="m12.411 69.56 3.2793-2.187a1.2775 1.2775 168.8 0 1 0.95915-0.18991l2.4292 0.48541a1.2775 1.2775 33.8 0 1 0.81252 0.54393 1.0122 1.0122 85.182 0 1 0.06507 0.77196l-1.1782 5.8962a0.52917 0.52917 146.3 0 1-0.6226 0.41522l-5.8962-1.1782a1.2775 1.2775 33.8 0 1-0.81251-0.54394 1.0122 1.0122 85.181 0 1-0.06508-0.77197l0.48542-2.4292a1.2775 1.2775 123.8 0 1 0.54394-0.81251z" fill="url(#linearGradient1854)" opacity=".8"/>
  </g>
  <g transform="matrix(.26458 0 0 .26458 115.51 -116.65)" style="shape-inside:url(#rect3472-2-9-1-7-6-4-6-4-8);white-space:pre" aria-label="10">
   <path d="m-429.27 663.22v-15h8.9062v-27.656h-9.8438v-13.734l32.109-7.9219v49.312h7.2656v15z"/>
   <path d="m-355.91 664.44q-8.9531 0-15.469-3.9375-6.5156-3.9844-10.031-11.297-3.5156-7.3125-3.5156-17.438 0-10.172 3.5156-17.531 3.5156-7.3594 9.9844-11.344 6.5156-3.9844 15.516-3.9844t15.516 3.9844q6.5156 3.9844 9.9844 11.344 3.5156 7.3594 3.5156 17.531 0 10.125-3.5156 17.438-3.5156 7.3125-10.031 11.297-6.4688 3.9375-15.469 3.9375zm0-15q7.7344 0 7.7344-17.812t-7.7344-17.812q-7.7344 0-7.7344 17.812t7.7344 17.812z"/>
  </g>
 </g>
</svg>
