<?xml version="1.0" encoding="UTF-8"?>
<!-- Created with Inkscape (http://www.inkscape.org/) -->
<svg width="52.917mm" height="79.375mm" version="1.1" viewBox="0 0 52.917 79.375" xmlns="http://www.w3.org/2000/svg" xmlns:xlink="http://www.w3.org/1999/xlink">
 <defs>
  <linearGradient id="linearGradient32939-5" x1="195.74" x2="202.06" y1="155.22" y2="160.16" gradientTransform="rotate(40.901 360.49 -10.713)" gradientUnits="userSpaceOnUse" xlink:href="#linearGradient32937"/>
  <linearGradient id="linearGradient32937">
   <stop stop-color="#50c878" offset="0"/>
   <stop stop-color="#1ce678" offset="1"/>
  </linearGradient>
  <linearGradient id="linearGradient16279" x1="235.33" x2="264.45" y1="-117.29" y2="-97.066" gradientTransform="matrix(.28788 0 0 .28788 47.825 10.465)" gradientUnits="userSpaceOnUse" xlink:href="#linearGradient31696-2"/>
  <linearGradient id="linearGradient31696-2">
   <stop stop-color="#0f52ba" offset="0"/>
   <stop stop-color="#578cdc" offset="1"/>
  </linearGradient>
  <linearGradient id="linearGradient53859-29" x1="256.38" x2="262.77" y1="-17.278" y2="-32.47" gradientTransform="matrix(.24198 .4282 -.4282 .24198 46.777 -79.556)" gradientUnits="userSpaceOnUse" xlink:href="#linearGradient53857"/>
  <linearGradient id="linearGradient53857">
   <stop stop-color="#901403" offset="0"/>
   <stop stop-color="#ec2006" offset="1"/>
  </linearGradient>
  <linearGradient id="linearGradient76744-27" x1="195.74" x2="202.06" y1="155.22" y2="160.16" gradientTransform="rotate(-43.296 6.0988 138.32)" gradientUnits="userSpaceOnUse" xlink:href="#linearGradient32937"/>
  <linearGradient id="linearGradient16281" x1="235.33" x2="264.45" y1="-117.29" y2="-97.066" gradientTransform="matrix(.28788 0 0 .28788 37.866 -82.422)" gradientUnits="userSpaceOnUse" xlink:href="#linearGradient31696-2"/>
  <linearGradient id="linearGradient76748-1" x1="256.38" x2="262.77" y1="-17.278" y2="-32.47" gradientTransform="matrix(.48981 .0447 -.0447 .48981 17.089 9.9407)" gradientUnits="userSpaceOnUse" xlink:href="#linearGradient53857"/>
  <linearGradient id="linearGradient76891-2" x1="195.74" x2="202.06" y1="155.22" y2="160.16" gradientTransform="rotate(-52.385 6.102 132.54)" gradientUnits="userSpaceOnUse" xlink:href="#linearGradient32937"/>
  <linearGradient id="linearGradient16283" x1="235.33" x2="264.45" y1="-117.29" y2="-97.066" gradientTransform="matrix(.28788 0 0 .28788 11.309 134.77)" gradientUnits="userSpaceOnUse" xlink:href="#linearGradient31696-2"/>
  <linearGradient id="linearGradient76895-9" x1="256.38" x2="262.77" y1="-17.278" y2="-32.47" gradientTransform="matrix(.45691 .18206 -.18206 .45691 -.027901 20.25)" gradientUnits="userSpaceOnUse" xlink:href="#linearGradient53857"/>
  <linearGradient id="linearGradient76897-4" x1="195.74" x2="202.06" y1="155.22" y2="160.16" gradientTransform="translate(-50.969 -119.3)" gradientUnits="userSpaceOnUse" xlink:href="#linearGradient32937"/>
  <linearGradient id="linearGradient16285" x1="235.33" x2="264.45" y1="-117.29" y2="-97.066" gradientTransform="matrix(.28788 0 0 .28788 78.54 30.691)" gradientUnits="userSpaceOnUse" xlink:href="#linearGradient31696-2"/>
  <linearGradient id="linearGradient76901-0" x1="256.38" x2="262.77" y1="-17.278" y2="-32.47" gradientTransform="matrix(.42301 -.25095 .25095 .42301 58.331 118.29)" gradientUnits="userSpaceOnUse" xlink:href="#linearGradient53857"/>
  <linearGradient id="linearGradient16287" x1="195.74" x2="202.06" y1="155.22" y2="160.16" gradientTransform="rotate(43.234 303.33 55.951)" gradientUnits="userSpaceOnUse" xlink:href="#linearGradient32937"/>
 </defs>
 <g transform="translate(-114.46 13.131)">
  <g>
   <path x="114.45594" y="-13.131248" width="52.916668" height="79.375" d="m117.1-13.131h47.625a2.6458 2.6458 45 0 1 2.6458 2.6458v74.083a2.6458 2.6458 135 0 1-2.6458 2.6458h-47.625a2.6458 2.6458 45 0 1-2.6458-2.6458v-74.083a2.6458 2.6458 135 0 1 2.6458-2.6458z" fill="#f4f4f4" stroke-width=".20646"/>
   <path d="m123.89 11.576 3.3582 2.0148a2 2 165.96 0 0 2.744-0.68605l2.0148-3.3582a2 2 75.963 0 0-0.68605-2.744l-3.3582-2.0148a2 2 165.96 0 0-2.744 0.68605l-2.0148 3.3582a2 2 75.963 0 0 0.68605 2.744z" fill="url(#linearGradient32939-5)" opacity=".8"/>
   <ellipse transform="rotate(8.0781)" cx="119.89" cy="-20.449" rx="5" ry="3.5917" fill="url(#linearGradient16279)" opacity=".8"/>
   <path d="m123.31 21.51 1.9392 3.4316a1.2775 1.2775 83.029 0 1 0.11866 0.97054l-0.66323 2.3868a1.2776 1.2776 128.03 0 1-0.60237 0.77019 1.0122 1.0122 179.41 0 1-0.77466 8e-3l-5.7932-1.6098a0.52917 0.52917 60.529 0 1-0.36817-0.65152l1.6098-5.7932a1.2775 1.2775 128.03 0 1 0.60238-0.77018 1.0122 1.0122 179.41 0 1 0.77466-8e-3l2.3868 0.66323a1.2775 1.2775 38.029 0 1 0.77019 0.60237z" fill="url(#linearGradient53859-29)" opacity=".8"/>
   <path d="m160.08 24.459 2.344-3.1373a2 2 81.765 0 0-0.40512-2.7993l-3.1373-2.344a2 2 171.77 0 0-2.7993 0.40512l-2.344 3.1373a2 2 81.765 0 0 0.40512 2.7993l3.1373 2.344a2 2 171.77 0 0 2.7993-0.40512z" fill="url(#linearGradient76744-27)" opacity=".8"/>
   <ellipse transform="rotate(45.485)" cx="109.93" cy="-113.34" rx="5" ry="3.5917" fill="url(#linearGradient16281)" opacity=".8"/>
   <path d="m143.75 4.518 3.9254 0.35823a1.2775 1.2775 27.714 0 1 0.8656 0.45473l1.5852 1.9036a1.2776 1.2776 72.713 0 1 0.29055 0.93361 1.0121 1.0121 124.1 0 1-0.43427 0.64152l-4.6204 3.8477a0.52917 0.52917 5.2144 0 1-0.74526-0.06801l-3.8476-4.6205a1.2776 1.2776 72.713 0 1-0.29055-0.93361 1.0121 1.0121 124.09 0 1 0.43427-0.64153l1.9036-1.5852a1.2775 1.2775 162.71 0 1 0.93362-0.29053z" fill="url(#linearGradient76748-1)" opacity=".8"/>
   <path d="m144.74-0.68515 1.819-3.4682a2 2 72.676 0 0-0.84222-2.7001l-3.4682-1.819a2 2 162.68 0 0-2.7001 0.84223l-1.819 3.4682a2 2 72.676 0 0 0.84222 2.7001l3.4681 1.819a2 2 162.68 0 0 2.7001-0.84222z" fill="url(#linearGradient76891-2)" opacity=".8"/>
   <ellipse transform="rotate(-34.077)" cx="83.374" cy="103.85" rx="5" ry="3.5917" fill="url(#linearGradient16283)" opacity=".8"/>
   <path d="m122.95 51.047 3.6617 1.459a1.2775 1.2775 44.225 0 1 0.70068 0.68197l0.97885 2.2756a1.2775 1.2775 89.225 0 1 0.0132 0.97768 1.0122 1.0122 140.61 0 1-0.59869 0.49166l-5.5234 2.3759a0.52917 0.52917 21.725 0 1-0.6952-0.277l-2.3759-5.5234a1.2775 1.2775 89.225 0 1-0.0132-0.97768 1.0122 1.0122 140.61 0 1 0.59869-0.49167l2.2756-0.97885a1.2775 1.2775 179.22 0 1 0.97768-0.01323z" fill="url(#linearGradient76895-9)" opacity=".8"/>
   <path d="m145.29 41.743 3.8574-0.67591a2 2 125.06 0 0 1.6248-2.3152l-0.6759-3.8574a2 2 35.061 0 0-2.3152-1.6248l-3.8574 0.67591a2 2 125.06 0 0-1.6248 2.3152l0.6759 3.8574a2 2 35.061 0 0 2.3152 1.6248z" fill="url(#linearGradient76897-4)" opacity=".8"/>
   <ellipse transform="rotate(21.44)" cx="150.61" cy="-.22398" rx="5" ry="3.5917" fill="url(#linearGradient16285)" opacity=".8"/>
   <path d="m157.76 39.641 3.39-2.0111a1.2775 1.2775 171.82 0 1 0.96783-0.13909l2.4002 0.61279a1.2775 1.2775 36.822 0 1 0.78271 0.58601 1.0122 1.0122 88.203 0 1 0.0243 0.77431l-1.4874 5.8259a0.52917 0.52917 149.32 0 1-0.64362 0.38182l-5.8259-1.4874a1.2775 1.2775 36.822 0 1-0.78271-0.58601 1.0122 1.0122 88.203 0 1-0.0243-0.77432l0.61279-2.4002a1.2775 1.2775 126.82 0 1 0.58601-0.78271z" fill="url(#linearGradient76901-0)" opacity=".8"/>
   <path d="m153.33 59.173 3.2734 2.1498a2 2 168.3 0 0 2.7696-0.57377l2.1498-3.2734a2 2 78.296 0 0-0.57378-2.7696l-3.2734-2.1498a2 2 168.3 0 0-2.7696 0.57377l-2.1498 3.2734a2 2 78.296 0 0 0.57378 2.7696z" fill="url(#linearGradient16287)" opacity=".8"/>
  </g>
  <g transform="matrix(.26458 0 0 .26458 241.64 -140.59)" style="shape-inside:url(#rect3472-2-9-1-7-6-4-6-4-8-5-1-6);white-space:pre" aria-label="13">
   <path d="m-429.27 663.22v-15h8.9062v-27.656h-9.8438v-13.734l32.109-7.9219v49.312h7.2656v15z"/>
   <path d="m-361.54 664.53q-4.125 0-8.3906-0.65625-4.2656-0.65625-7.9219-1.8281-3.6562-1.2188-6.0469-2.7656v-14.062l1.2656-0.5625q3 2.25 7.3594 3.75 4.3594 1.5 10.453 1.5 4.6875 0 8.0156-1.5 3.3281-1.5469 3.3281-5.25 0-3.75-3.3281-5.2969-3.2812-1.5469-7.7344-1.5469-1.6406 0-3.75 0.23438-2.1094 0.1875-4.125 0.70312l-1.2656-0.5625v-7.2188l17.719-13.453h-27.984v-16.172h50.203v12.891l-17.016 12.797q9.0938 1.2188 14.297 5.7656 5.25 4.5 5.25 12.281 0 9.6094-7.7812 15.281-7.7344 5.6719-22.547 5.6719z"/>
  </g>
 </g>
</svg>
