<?xml version="1.0" encoding="UTF-8"?>
<!-- Created with Inkscape (http://www.inkscape.org/) -->
<svg width="52.917mm" height="79.375mm" version="1.1" viewBox="0 0 52.917 79.375" xmlns="http://www.w3.org/2000/svg" xmlns:xlink="http://www.w3.org/1999/xlink">
 <defs>
  <linearGradient id="linearGradient28254" x1="195.74" x2="202.06" y1="155.22" y2="160.16" gradientTransform="translate(-178.5 -283.26)" gradientUnits="userSpaceOnUse" xlink:href="#linearGradient32937"/>
  <linearGradient id="linearGradient32937">
   <stop stop-color="#50c878" offset="0"/>
   <stop stop-color="#1ce678" offset="1"/>
  </linearGradient>
  <linearGradient id="linearGradient28256" x1="235.33" x2="264.45" y1="-117.29" y2="-97.066" gradientTransform="matrix(.28788 0 0 .28788 46.194 -87.101)" gradientUnits="userSpaceOnUse" xlink:href="#linearGradient31696-2"/>
  <linearGradient id="linearGradient31696-2">
   <stop stop-color="#0f52ba" offset="0"/>
   <stop stop-color="#578cdc" offset="1"/>
  </linearGradient>
  <linearGradient id="linearGradient28258" x1="256.38" x2="262.77" y1="-17.278" y2="-32.47" gradientTransform="matrix(.45566 .18517 -.18517 .45566 -122.73 -174.18)" gradientUnits="userSpaceOnUse" xlink:href="#linearGradient53857"/>
  <linearGradient id="linearGradient53857">
   <stop stop-color="#901403" offset="0"/>
   <stop stop-color="#ec2006" offset="1"/>
  </linearGradient>
  <linearGradient id="linearGradient28260" x1="195.74" x2="202.06" y1="155.22" y2="160.16" gradientTransform="rotate(32.479 649.68 -273.38)" gradientUnits="userSpaceOnUse" xlink:href="#linearGradient32937"/>
  <linearGradient id="linearGradient28262" x1="235.33" x2="264.45" y1="-117.29" y2="-97.066" gradientTransform="matrix(.28788 0 0 .28788 65.628 61.614)" gradientUnits="userSpaceOnUse" xlink:href="#linearGradient31696-2"/>
  <linearGradient id="linearGradient28264" x1="256.38" x2="262.77" y1="-17.278" y2="-32.47" gradientTransform="matrix(.44996 .19862 -.19862 .44996 -97.618 -183)" gradientUnits="userSpaceOnUse" xlink:href="#linearGradient53857"/>
  <linearGradient id="linearGradient28266" x1="195.74" x2="202.06" y1="155.22" y2="160.16" gradientTransform="rotate(42.934 455.76 -228.69)" gradientUnits="userSpaceOnUse" xlink:href="#linearGradient32937"/>
  <linearGradient id="linearGradient28268" x1="235.33" x2="264.45" y1="-117.29" y2="-97.066" gradientTransform="matrix(.28788 0 0 .28788 -33.895 140.39)" gradientUnits="userSpaceOnUse" xlink:href="#linearGradient31696-2"/>
  <linearGradient id="linearGradient28270" x1="256.38" x2="262.77" y1="-17.278" y2="-32.47" gradientTransform="matrix(.42301 -.25095 .25095 .42301 -67.482 -46.526)" gradientUnits="userSpaceOnUse" xlink:href="#linearGradient53857"/>
  <linearGradient id="linearGradient28272" x1="195.74" x2="202.06" y1="155.22" y2="160.16" gradientTransform="rotate(37.643 505.36 -229.79)" gradientUnits="userSpaceOnUse" xlink:href="#linearGradient32937"/>
  <linearGradient id="linearGradient28274" x1="235.33" x2="264.45" y1="-117.29" y2="-97.066" gradientTransform="matrix(.28788 0 0 .28788 -17.788 -68.224)" gradientUnits="userSpaceOnUse" xlink:href="#linearGradient31696-2"/>
  <linearGradient id="linearGradient28276" x1="256.38" x2="262.77" y1="-17.278" y2="-32.47" gradientTransform="matrix(.48568 .077599 -.077599 .48568 -111.8 -110.15)" gradientUnits="userSpaceOnUse" xlink:href="#linearGradient53857"/>
  <linearGradient id="linearGradient28278" x1="195.74" x2="202.06" y1="155.22" y2="160.16" gradientTransform="translate(-195.04 -325.26)" gradientUnits="userSpaceOnUse" xlink:href="#linearGradient32937"/>
  <linearGradient id="linearGradient28280" x1="235.33" x2="264.45" y1="-117.29" y2="-97.066" gradientTransform="matrix(.28788 0 0 .28788 -65.279 -121.57)" gradientUnits="userSpaceOnUse" xlink:href="#linearGradient31696-2"/>
  <linearGradient id="linearGradient28282" x1="256.38" x2="262.77" y1="-17.278" y2="-32.47" gradientTransform="matrix(.49174 .010051 -.010051 .49174 -108.09 -158.19)" gradientUnits="userSpaceOnUse" xlink:href="#linearGradient53857"/>
  <linearGradient id="linearGradient28284" x1="195.74" x2="202.06" y1="155.22" y2="160.16" gradientTransform="rotate(35.668 595.51 -279.46)" gradientUnits="userSpaceOnUse" xlink:href="#linearGradient32937"/>
  <linearGradient id="linearGradient28286" x1="256.38" x2="262.77" y1="-17.278" y2="-32.47" gradientTransform="matrix(.42301 -.25095 .25095 .42301 -96.51 -86.627)" gradientUnits="userSpaceOnUse" xlink:href="#linearGradient53857"/>
 </defs>
 <g transform="translate(6.0399 176.31)">
  <g>
   <path x="-6.0398507" y="-176.31409" width="52.916668" height="79.375" d="m-3.394-176.31h47.625a2.6458 2.6458 45 0 1 2.6458 2.6458v74.083a2.6458 2.6458 135 0 1-2.6458 2.6458h-47.625a2.6458 2.6458 45 0 1-2.6458-2.6458v-74.083a2.6458 2.6458 135 0 1 2.6458-2.6458z" fill="#f4f4f4" stroke-width=".20646"/>
   <path d="m17.753-122.22 3.8574-0.6759a2 2 125.06 0 0 1.6248-2.3152l-0.67591-3.8574a2 2 35.061 0 0-2.3152-1.6248l-3.8574 0.67591a2 2 125.06 0 0-1.6248 2.3152l0.67591 3.8574a2 2 35.061 0 0 2.3152 1.6248z" fill="url(#linearGradient28254)" opacity=".8"/>
   <ellipse transform="rotate(-34.077)" cx="118.26" cy="-118.02" rx="5" ry="3.5917" fill="url(#linearGradient28256)" opacity=".8"/>
   <path d="m0.031373-142.55 3.6517 1.484a1.2775 1.2775 44.616 0 1 0.69601 0.68674l0.9633 2.2822a1.2775 1.2775 89.616 0 1 0.00656 0.97775 1.0122 1.0122 141 0 1-0.60203 0.48757l-5.5395 2.3382a0.52917 0.52917 22.116 0 1-0.69329-0.28174l-2.3382-5.5395a1.2775 1.2775 89.616 0 1-0.00655-0.97775 1.0122 1.0122 141 0 1 0.60203-0.48757l2.2822-0.96329a1.2775 1.2775 179.62 0 1 0.97775-7e-3z" fill="url(#linearGradient28258)" opacity=".8"/>
   <path d="m33.889-150.39 3.617 1.5012a2 2 157.54 0 0 2.6139-1.0805l1.5012-3.617a2 2 67.541 0 0-1.0805-2.6139l-3.617-1.5012a2 2 157.54 0 0-2.6139 1.0805l-1.5012 3.617a2 2 67.541 0 0 1.0805 2.6139z" fill="url(#linearGradient28260)" opacity=".8"/>
   <ellipse transform="rotate(-86.572)" cx="137.69" cy="30.699" rx="5" ry="3.5917" fill="url(#linearGradient28262)" opacity=".8"/>
   <path d="m24.154-147.74 3.606 1.5917a1.2775 1.2775 46.318 0 1 0.67531 0.7071l0.89511 2.3098a1.2776 1.2776 91.317 0 1-0.02248 0.97751 1.0122 1.0122 142.7 0 1-0.61624 0.46948l-5.6065 2.1726a0.52917 0.52917 23.818 0 1-0.68462-0.3022l-2.1726-5.6065a1.2775 1.2775 91.317 0 1 0.02248-0.97751 1.0122 1.0122 142.7 0 1 0.61624-0.46948l2.3098-0.89509a1.2775 1.2775 1.3177 0 1 0.97752 0.0225z" fill="url(#linearGradient28264)" opacity=".8"/>
   <path d="m0.29406-120.12 3.2846 2.1327a2 2 168 0 0 2.7666-0.58826l2.1327-3.2846a2 2 77.996 0 0-0.58826-2.7666l-3.2846-2.1327a2 2 168 0 0-2.7666 0.58826l-2.1327 3.2846a2 2 77.996 0 0 0.58826 2.7666z" fill="url(#linearGradient28266)" opacity=".8"/>
   <ellipse transform="rotate(218.48)" cx="38.17" cy="109.48" rx="5" ry="3.5917" fill="url(#linearGradient28268)" opacity=".8"/>
   <path d="m31.948-125.18 3.39-2.0111a1.2775 1.2775 171.82 0 1 0.96783-0.13909l2.4002 0.61279a1.2775 1.2775 36.822 0 1 0.78271 0.58601 1.0122 1.0122 88.203 0 1 0.02429 0.77431l-1.4874 5.8259a0.52917 0.52917 149.32 0 1-0.64362 0.38182l-5.8259-1.4874a1.2775 1.2775 36.822 0 1-0.78271-0.58601 1.0122 1.0122 88.203 0 1-0.02429-0.77432l0.61279-2.4002a1.2775 1.2775 126.82 0 1 0.58601-0.78271z" fill="url(#linearGradient28270)" opacity=".8"/>
   <path d="m21.901-109.09 3.4673 1.8207a2 2 162.7 0 0 2.7005-0.84091l1.8207-3.4673a2 2 72.704 0 0-0.84091-2.7005l-3.4673-1.8207a2 2 162.7 0 0-2.7005 0.84091l-1.8207 3.4673a2 2 72.704 0 0 0.84091 2.7005z" fill="url(#linearGradient28272)" opacity=".8"/>
   <ellipse transform="rotate(-25.121)" cx="54.277" cy="-99.139" rx="5" ry="3.5917" fill="url(#linearGradient28274)" opacity=".8"/>
   <path d="m14.939-107.03 3.8923 0.62189a1.2775 1.2775 31.578 0 1 0.83299 0.51202l1.4533 2.0061a1.2775 1.2775 76.577 0 1 0.22697 0.95107 1.0122 1.0122 127.96 0 1-0.47651 0.61081l-4.8692 3.5276a0.52917 0.52917 9.0775 0 1-0.73898-0.11807l-3.5276-4.8692a1.2775 1.2775 76.578 0 1-0.22697-0.95107 1.0122 1.0122 127.96 0 1 0.47652-0.61082l2.0061-1.4533a1.2775 1.2775 166.58 0 1 0.95106-0.22697z" fill="url(#linearGradient28276)" opacity=".8"/>
   <path d="m1.2103-164.21 3.8574-0.6759a2 2 125.06 0 0 1.6248-2.3152l-0.67591-3.8574a2 2 35.061 0 0-2.3152-1.6248l-3.8574 0.67591a2 2 125.06 0 0-1.6248 2.3152l0.67591 3.8574a2 2 35.061 0 0 2.3152 1.6248z" fill="url(#linearGradient28278)" opacity=".8"/>
   <ellipse transform="rotate(-2.168)" cx="6.7863" cy="-152.49" rx="5" ry="3.5917" fill="url(#linearGradient28280)" opacity=".8"/>
   <path d="m17.875-172.53 3.9408 0.0806a1.2775 1.2775 23.671 0 1 0.89551 0.39256l1.7155 1.7871a1.2776 1.2776 68.67 0 1 0.35566 0.91081 1.0121 1.0121 120.05 0 1-0.38795 0.67055l-4.3376 4.1639a0.52917 0.52917 1.171 0 1-0.7482-0.0153l-4.1639-4.3376a1.2776 1.2776 68.67 0 1-0.35566-0.91081 1.0121 1.0121 120.05 0 1 0.38795-0.67055l1.7871-1.7155a1.2775 1.2775 158.67 0 1 0.9108-0.35564z" fill="url(#linearGradient28282)" opacity=".8"/>
   <path d="m14.296-154.39 3.5279 1.7001a2 2 160.73 0 0 2.6699-0.93349l1.7001-3.5279a2 2 70.729 0 0-0.93349-2.67l-3.528-1.7001a2 2 160.73 0 0-2.6699 0.93349l-1.7001 3.5279a2 2 70.729 0 0 0.93349 2.67z" fill="url(#linearGradient28284)" opacity=".8"/>
   <path d="m2.9201-165.28 3.39-2.0111a1.2775 1.2775 171.82 0 1 0.96783-0.13909l2.4002 0.61279a1.2775 1.2775 36.822 0 1 0.78271 0.58601 1.0122 1.0122 88.204 0 1 0.02428 0.77431l-1.4874 5.8259a0.52917 0.52917 149.32 0 1-0.64362 0.38182l-5.8259-1.4874a1.2775 1.2775 36.822 0 1-0.78271-0.58601 1.0122 1.0122 88.203 0 1-0.024291-0.77432l0.61279-2.4002a1.2775 1.2775 126.82 0 1 0.58601-0.78271z" fill="url(#linearGradient28286)" opacity=".8"/>
  </g>
  <g transform="matrix(.26458 0 0 .26458 121.12 -303.6)" style="shape-inside:url(#rect3472-2-9-1-7-6-4-6-4-8-5-1-6-8-3-7-6);white-space:pre" aria-label="17">
   <path d="m-429.27 663.22v-15h8.9062v-27.656h-9.8438v-13.734l32.109-7.9219v49.312h7.2656v15z"/>
   <path d="m-382.12 663.22 24.938-48.141h-15l-1.1719 10.781-12.656-0.0469v-25.969h54.984v13.359l-24.375 50.016z"/>
  </g>
 </g>
</svg>
