<?xml version="1.0" encoding="UTF-8"?>
<!-- Created with Inkscape (http://www.inkscape.org/) -->
<svg width="52.917mm" height="79.375mm" version="1.1" viewBox="0 0 52.917 79.375" xmlns="http://www.w3.org/2000/svg" xmlns:xlink="http://www.w3.org/1999/xlink">
 <defs>
  <linearGradient id="linearGradient75721" x1="195.74" x2="202.06" y1="155.22" y2="160.16" gradientTransform="translate(-84.31 28.34)" gradientUnits="userSpaceOnUse">
   <stop stop-color="#50c878" offset="0"/>
   <stop stop-color="#1ce678" offset="1"/>
  </linearGradient>
  <linearGradient id="linearGradient75723" x1="256.38" x2="262.77" y1="-17.278" y2="-32.47" gradientTransform="matrix(.43022 .23837 -.23837 .43022 21.503 182.33)" gradientUnits="userSpaceOnUse">
   <stop stop-color="#901403" offset="0"/>
   <stop stop-color="#ec2006" offset="1"/>
  </linearGradient>
 </defs>
 <g transform="translate(-99.846 -166.82)">
  <path x="99.84568" y="166.81789" width="52.916668" height="79.375" d="m102.49 166.82h47.625a2.6458 2.6458 45 0 1 2.6458 2.6458v74.083a2.6458 2.6458 135 0 1-2.6458 2.6458h-47.625a2.6458 2.6458 45 0 1-2.6458-2.6458v-74.083a2.6458 2.6458 135 0 1 2.6458-2.6458z" fill="#f4f4f4" stroke-width=".20646"/>
  <g transform="matrix(.26458 0 0 .26458 233.14 39.537)" style="shape-inside:url(#rect3472-2);white-space:pre" aria-label="2">
   <path d="m-429.37 663.22v-13.359q13.734-5.3438 21.141-12.562 7.4531-7.2188 7.4531-15.141 0-4.4531-1.875-7.125-1.875-2.6719-5.625-2.6719-3.8906 0-5.9531 2.625-2.0156 2.5781-2.0156 6.7031 0 2.2969 0.5625 4.2188 0.60937 1.9219 1.875 4.2656l-11.953 4.7344q-2.2969-2.2969-3.7031-6.0938-1.4062-3.7969-1.4062-8.0156 0-7.125 3.5156-12 3.5625-4.875 9.5625-7.3594 6.0469-2.5312 13.547-2.5312 7.7344 0 13.5 2.4844 5.8125 2.4375 9 7.1719 3.2344 4.7344 3.2344 11.484 0 8.25-5.9531 15.281-5.9062 7.0312-17.812 11.719h25.312l0.23437 16.172z"/>
  </g>
  <path d="m111.94 189.39 3.8574-0.6759a2 2 125.06 0 0 1.6248-2.3152l-0.6759-3.8574a2 2 35.061 0 0-2.3152-1.6248l-3.8574 0.67591a2 2 125.06 0 0-1.6248 2.3152l0.6759 3.8574a2 2 35.061 0 0 2.3152 1.6248z" fill="url(#linearGradient75721)" opacity=".8"/>
  <path d="m139.6 228.43 3.4478 1.9103a1.2775 1.2775 51.489 0 1 0.60883 0.7651l0.68326 2.3811a1.2775 1.2775 96.489 0 1-0.11049 0.97151 1.0122 1.0122 147.87 0 1-0.65605 0.41201l-5.7795 1.6585a0.52917 0.52917 28.989 0 1-0.6546-0.36268l-1.6584-5.7795a1.2775 1.2775 96.489 0 1 0.1105-0.97151 1.0122 1.0122 147.87 0 1 0.65605-0.41202l2.3811-0.68326a1.2775 1.2775 6.4889 0 1 0.97151 0.1105z" fill="url(#linearGradient75723)" opacity=".8"/>
 </g>
</svg>
