<?xml version="1.0" encoding="UTF-8"?>
<!-- Created with Inkscape (http://www.inkscape.org/) -->
<svg width="52.917mm" height="79.375mm" version="1.1" viewBox="0 0 52.917 79.375" xmlns="http://www.w3.org/2000/svg" xmlns:xlink="http://www.w3.org/1999/xlink">
 <defs>
  <linearGradient id="linearGradient77005" x1="195.74" x2="202.06" y1="155.22" y2="160.16" gradientTransform="translate(42.512 204.54)" gradientUnits="userSpaceOnUse" xlink:href="#linearGradient32937"/>
  <linearGradient id="linearGradient32937">
   <stop stop-color="#50c878" offset="0"/>
   <stop stop-color="#1ce678" offset="1"/>
  </linearGradient>
  <linearGradient id="linearGradient77007" x1="235.33" x2="264.45" y1="-117.29" y2="-97.066" gradientTransform="matrix(.28788 0 0 .28788 -50.761 430.05)" gradientUnits="userSpaceOnUse">
   <stop stop-color="#0f52ba" offset="0"/>
   <stop stop-color="#578cdc" offset="1"/>
  </linearGradient>
  <linearGradient id="linearGradient77009" x1="256.38" x2="262.77" y1="-17.278" y2="-32.47" gradientTransform="matrix(.42301 -.25095 .25095 .42301 156.25 444.46)" gradientUnits="userSpaceOnUse">
   <stop stop-color="#901403" offset="0"/>
   <stop stop-color="#ec2006" offset="1"/>
  </linearGradient>
  <linearGradient id="linearGradient77011" x1="195.74" x2="202.06" y1="155.22" y2="160.16" gradientTransform="rotate(40.201 3.6561 338.24)" gradientUnits="userSpaceOnUse" xlink:href="#linearGradient32937"/>
 </defs>
 <g transform="translate(-225.95 -301.92)">
  <path x="225.94739" y="301.92395" width="52.916668" height="79.375" d="m228.59 301.92h47.625a2.6458 2.6458 45 0 1 2.6458 2.6458v74.083a2.6458 2.6458 135 0 1-2.6458 2.6458h-47.625a2.6458 2.6458 45 0 1-2.6458-2.6458v-74.083a2.6458 2.6458 135 0 1 2.6458-2.6458z" fill="#f4f4f4" stroke-width=".20646"/>
  <g transform="matrix(.26458 0 0 .26458 358.73 174.52)" style="shape-inside:url(#rect3472-2-9-1);white-space:pre" aria-label="4">
   <path d="m-404.38 663.22v-14.484h-27.422v-14.062l28.359-34.828h20.391v33.844h11.109v15h-11.109v14.531zm-13.641-29.625 13.641 0.0469v-16.922z"/>
  </g>
  <g>
   <path d="m238.77 365.58 3.8574-0.6759a2 2 125.06 0 0 1.6248-2.3152l-0.67592-3.8574a2 2 35.061 0 0-2.3152-1.6248l-3.8574 0.67591a2 2 125.06 0 0-1.6248 2.3152l0.6759 3.8574a2 2 35.061 0 0 2.3152 1.6248z" fill="url(#linearGradient77005)" opacity=".8"/>
   <ellipse transform="rotate(-34.077)" cx="21.305" cy="399.13" rx="5" ry="3.5917" fill="url(#linearGradient77007)" opacity=".8"/>
   <path d="m255.68 365.81 3.39-2.0111a1.2775 1.2775 171.82 0 1 0.96783-0.13909l2.4002 0.61279a1.2775 1.2775 36.822 0 1 0.78271 0.58601 1.0122 1.0122 88.203 0 1 0.0243 0.77431l-1.4874 5.8259a0.52917 0.52917 149.32 0 1-0.64362 0.38182l-5.8259-1.4874a1.2775 1.2775 36.822 0 1-0.78271-0.58601 1.0122 1.0122 88.203 0 1-0.0243-0.77432l0.61279-2.4002a1.2775 1.2775 126.82 0 1 0.58601-0.78271z" fill="url(#linearGradient77009)" opacity=".8"/>
   <path d="m265.13 327.22 3.3825 1.9736a2 2 165.26 0 0 2.7354-0.71952l1.9736-3.3825a2 2 75.262 0 0-0.71952-2.7354l-3.3826-1.9736a2 2 165.26 0 0-2.7354 0.71953l-1.9736 3.3825a2 2 75.263 0 0 0.71953 2.7354z" fill="url(#linearGradient77011)" opacity=".8"/>
  </g>
 </g>
</svg>
