<?xml version="1.0" encoding="UTF-8"?>
<!-- Created with Inkscape (http://www.inkscape.org/) -->
<svg width="52.917mm" height="79.375mm" version="1.1" viewBox="0 0 52.917 79.375" xmlns="http://www.w3.org/2000/svg" xmlns:xlink="http://www.w3.org/1999/xlink">
 <defs>
  <linearGradient id="linearGradient77212" x1="235.33" x2="264.45" y1="-117.29" y2="-97.066" gradientTransform="matrix(.28788 0 0 .28788 123.75 24.615)" gradientUnits="userSpaceOnUse" xlink:href="#linearGradient31696-2"/>
  <linearGradient id="linearGradient31696-2">
   <stop stop-color="#0f52ba" offset="0"/>
   <stop stop-color="#578cdc" offset="1"/>
  </linearGradient>
  <linearGradient id="linearGradient77214" x1="256.38" x2="262.77" y1="-17.278" y2="-32.47" gradientTransform="matrix(.47037 .14373 -.14373 .47037 39.698 82.374)" gradientUnits="userSpaceOnUse" xlink:href="#linearGradient53857"/>
  <linearGradient id="linearGradient53857">
   <stop stop-color="#901403" offset="0"/>
   <stop stop-color="#ec2006" offset="1"/>
  </linearGradient>
  <linearGradient id="linearGradient77216" x1="195.74" x2="202.06" y1="155.22" y2="160.16" gradientTransform="rotate(33.168 241.05 141.84)" gradientUnits="userSpaceOnUse">
   <stop stop-color="#50c878" offset="0"/>
   <stop stop-color="#1ce678" offset="1"/>
  </linearGradient>
  <linearGradient id="linearGradient77218" x1="235.33" x2="264.45" y1="-117.29" y2="-97.066" gradientTransform="matrix(.28788 0 0 .28788 -1.8012 233.03)" gradientUnits="userSpaceOnUse" xlink:href="#linearGradient31696-2"/>
  <linearGradient id="linearGradient77220" x1="256.38" x2="262.77" y1="-17.278" y2="-32.47" gradientTransform="matrix(.37011 -.32393 .32393 .37011 112.32 197.12)" gradientUnits="userSpaceOnUse" xlink:href="#linearGradient53857"/>
 </defs>
 <g transform="translate(-155.97 -69.769)">
  <path x="155.96991" y="69.769447" width="52.916668" height="79.375" d="m158.62 69.769h47.625a2.6458 2.6458 45 0 1 2.6458 2.6458v74.083a2.6458 2.6458 135 0 1-2.6458 2.6458h-47.625a2.6458 2.6458 45 0 1-2.6458-2.6458v-74.083a2.6458 2.6458 135 0 1 2.6458-2.6458z" fill="#f4f4f4" stroke-width=".20646"/>
  <g transform="matrix(.26458 0 0 .26458 289.1 -57.809)" style="shape-inside:url(#rect3472-2-9-1-7);white-space:pre" aria-label="5">
   <path d="m-407.15 664.53q-4.125 0-8.3906-0.65625-4.2656-0.65625-7.9219-1.8281-3.6562-1.2188-6.0469-2.7656v-13.594l1.2656-0.5625q3 1.875 7.3594 3.3281 4.3594 1.4531 10.453 1.4531 4.7344 0 8.0156-1.5 3.3281-1.5469 3.3281-5.25 0-3.75-3.375-5.2969-3.3281-1.5469-8.4375-1.5469-3.9844 0-8.25 0.84375-4.2656 0.79688-8.1562 2.3438l-1.2656-0.5625 2.8125-39.094h45.469v16.172h-32.625l-0.60937 6.9375q4.3125-0.79688 8.7188-0.79688 13.031 0 20.484 5.5781 7.5 5.5312 7.5 15.469t-7.7812 15.656q-7.7344 5.6719-22.547 5.6719z"/>
  </g>
  <g>
   <ellipse transform="rotate(27.306)" cx="195.81" cy="-6.2994" rx="5" ry="3.5917" fill="url(#linearGradient77212)" opacity=".8"/>
   <path d="m164.8 102.92 3.7696 1.1519a1.2775 1.2775 39.492 0 1 0.75457 0.62183l1.1633 2.1871a1.2776 1.2776 84.491 0 1 0.0939 0.97326 1.0122 1.0122 135.87 0 1-0.55607 0.53938l-5.3085 2.8236a0.52917 0.52917 16.991 0 1-0.71569-0.21869l-2.8236-5.3085a1.2775 1.2775 84.492 0 1-0.0939-0.97326 1.0122 1.0122 135.87 0 1 0.55608-0.53939l2.1871-1.1633a1.2775 1.2775 174.49 0 1 0.97326-0.0939z" fill="url(#linearGradient77214)" opacity=".8"/>
   <path d="m193.04 133.41 3.5987 1.5446a2 2 158.23 0 0 2.6267-1.049l1.5446-3.5987a2 2 68.229 0 0-1.049-2.6267l-3.5987-1.5446a2 2 158.23 0 0-2.6267 1.049l-1.5446 3.5987a2 2 68.229 0 0 1.049 2.6267z" fill="url(#linearGradient77216)" opacity=".8"/>
   <ellipse transform="rotate(-34.077)" cx="70.264" cy="202.12" rx="5" ry="3.5917" fill="url(#linearGradient77218)" opacity=".8"/>
   <path d="m195.73 101.64 2.9661-2.596a1.2775 1.2775 161.31 0 1 0.9262-0.31337l2.4717 0.16448a1.2775 1.2775 26.307 0 1 0.87651 0.43333 1.0122 1.0122 77.688 0 1 0.1652 0.75689l-0.39923 5.9995a0.52917 0.52917 138.81 0 1-0.56313 0.49287l-5.9995-0.39923a1.2775 1.2775 26.307 0 1-0.87651-0.43333 1.0122 1.0122 77.688 0 1-0.16519-0.75688l0.16448-2.4717a1.2775 1.2775 116.31 0 1 0.43333-0.87651z" fill="url(#linearGradient77220)" opacity=".8"/>
  </g>
 </g>
</svg>
