<?xml version="1.0" encoding="UTF-8"?>
<!-- Created with Inkscape (http://www.inkscape.org/) -->
<svg width="52.917mm" height="79.375mm" version="1.1" viewBox="0 0 52.917 79.375" xmlns="http://www.w3.org/2000/svg" xmlns:xlink="http://www.w3.org/1999/xlink">
 <defs>
  <linearGradient id="linearGradient80699" x1="195.74" x2="202.06" y1="155.22" y2="160.16" gradientTransform="rotate(32.995 227.27 -58.295)" gradientUnits="userSpaceOnUse" xlink:href="#linearGradient32937"/>
  <linearGradient id="linearGradient32937">
   <stop stop-color="#50c878" offset="0"/>
   <stop stop-color="#1ce678" offset="1"/>
  </linearGradient>
  <linearGradient id="linearGradient80701" x1="235.33" x2="264.45" y1="-117.29" y2="-97.066" gradientTransform="matrix(.28788 0 0 .28788 -41.284 196.42)" gradientUnits="userSpaceOnUse" xlink:href="#linearGradient31696-2"/>
  <linearGradient id="linearGradient31696-2">
   <stop stop-color="#0f52ba" offset="0"/>
   <stop stop-color="#578cdc" offset="1"/>
  </linearGradient>
  <linearGradient id="linearGradient80703" x1="256.38" x2="262.77" y1="-17.278" y2="-32.47" gradientTransform="matrix(.42301 -.25095 .25095 .42301 5.598 173.4)" gradientUnits="userSpaceOnUse" xlink:href="#linearGradient53857"/>
  <linearGradient id="linearGradient53857">
   <stop stop-color="#901403" offset="0"/>
   <stop stop-color="#ec2006" offset="1"/>
  </linearGradient>
  <linearGradient id="linearGradient80705" x1="195.74" x2="202.06" y1="155.22" y2="160.16" gradientTransform="translate(-81.844 -14.378)" gradientUnits="userSpaceOnUse" xlink:href="#linearGradient32937"/>
  <linearGradient id="linearGradient80707" x1="235.33" x2="264.45" y1="-117.29" y2="-97.066" gradientTransform="matrix(.28788 0 0 .28788 53.77 128.52)" gradientUnits="userSpaceOnUse" xlink:href="#linearGradient31696-2"/>
  <linearGradient id="linearGradient80709" x1="256.38" x2="262.77" y1="-17.278" y2="-32.47" gradientTransform="matrix(.43417 .2311 -.2311 .43417 -36.092 101.36)" gradientUnits="userSpaceOnUse" xlink:href="#linearGradient53857"/>
 </defs>
 <g transform="translate(-73.249 -79.525)">
  <g>
   <path x="73.248657" y="79.525116" width="52.916668" height="79.375" d="m75.894 79.525h47.625a2.6458 2.6458 45 0 1 2.6458 2.6458v74.083a2.6458 2.6458 135 0 1-2.6458 2.6458h-47.625a2.6458 2.6458 45 0 1-2.6458-2.6458v-74.083a2.6458 2.6458 135 0 1 2.6458-2.6458z" fill="#f4f4f4"/>
   <path d="m81.81 108.78 3.6034 1.5337a2 2 158.06 0 0 2.6235-1.057l1.5337-3.6034a2 2 68.056 0 0-1.057-2.6235l-3.6034-1.5337a2 2 158.06 0 0-2.6235 1.057l-1.5337 3.6034a2 2 68.056 0 0 1.057 2.6235z" fill="url(#linearGradient80699)" opacity=".8"/>
   <ellipse transform="rotate(-34.077)" cx="30.781" cy="165.5" rx="5" ry="3.5917" fill="url(#linearGradient80701)" opacity=".8"/>
   <path d="m105.03 94.753 3.39-2.0111a1.2775 1.2775 171.82 0 1 0.96783-0.13909l2.4002 0.61279a1.2775 1.2775 36.822 0 1 0.78271 0.58601 1.0122 1.0122 88.203 0 1 0.0243 0.77431l-1.4874 5.8259a0.52917 0.52917 149.32 0 1-0.64362 0.38182l-5.8259-1.4874a1.2775 1.2775 36.822 0 1-0.78271-0.58601 1.0122 1.0122 88.203 0 1-0.0243-0.77432l0.61279-2.4002a1.2775 1.2775 126.82 0 1 0.58601-0.78271z" fill="url(#linearGradient80703)" opacity=".8"/>
   <path d="m114.41 146.67 3.8574-0.6759a2 2 125.06 0 0 1.6248-2.3152l-0.67592-3.8574a2 2 35.061 0 0-2.3152-1.6248l-3.8574 0.67591a2 2 125.06 0 0-1.6248 2.3152l0.6759 3.8574a2 2 35.061 0 0 2.3152 1.6248z" fill="url(#linearGradient80705)" opacity=".8"/>
   <ellipse transform="rotate(18.536)" cx="125.84" cy="97.601" rx="5" ry="3.5917" fill="url(#linearGradient80707)" opacity=".8"/>
   <path d="m82.765 145.46 3.4795 1.852a1.2775 1.2775 50.525 0 1 0.62161 0.75474l0.72323 2.3693a1.2775 1.2775 95.525 0 1-0.09414 0.97323 1.0122 1.0122 146.91 0 1-0.64902 0.42299l-5.7508 1.7555a0.52917 0.52917 28.025 0 1-0.66061-0.35162l-1.7555-5.7508a1.2775 1.2775 95.525 0 1 0.09414-0.97323 1.0122 1.0122 146.91 0 1 0.64903-0.42299l2.3693-0.72324a1.2775 1.2775 5.5249 0 1 0.97323 0.0941z" fill="url(#linearGradient80709)" opacity=".8"/>
  </g>
  <g transform="matrix(.26458 0 0 .26458 205.99 -47.917)" style="shape-inside:url(#rect3472-2-9-1-7-6);white-space:pre" aria-label="6">
   <path d="m-399.51 664.44q-9.7031 0-16.641-3.8906-6.9375-3.9375-10.641-11.203-3.7031-7.3125-3.7031-17.438 0-10.875 4.3594-18.188 4.4062-7.3594 11.766-11.062 7.4062-3.75 16.453-3.75 6.9844 0 12.375 2.1562 5.3906 2.1094 8.4844 6.1406t3.0938 9.7969q0 1.1719-0.0469 2.2031-0.0469 0.98437-0.28125 2.0156l-14.391-0.51562v-1.7344q0-3.75-2.25-5.5312t-5.8125-1.7812q-5.2969 0-8.8125 3.9844-3.5156 3.9844-3.5156 12.609 0 0.9375 0.0469 1.7344 2.7188-3.1406 6.75-4.7344 4.0781-1.5938 8.6719-1.5938 6.2344 0 10.875 2.4844 4.6406 2.4375 7.2188 6.9375 2.5781 4.5 2.5781 10.547 0 6.2812-3.4688 10.969t-9.4688 7.2656q-6 2.5781-13.641 2.5781zm-0.70312-12.844q3.3281 0 5.4375-2.2031 2.1562-2.25 2.1562-5.8125 0-3.6094-2.1562-5.7656-2.1094-2.1562-5.4375-2.1562-3.1875 0-5.3906 2.2031-2.2031 2.1562-2.2031 5.7188t2.1562 5.8125q2.1562 2.2031 5.4375 2.2031z"/>
  </g>
 </g>
</svg>
