<?xml version="1.0" encoding="UTF-8"?>
<!-- Created with Inkscape (http://www.inkscape.org/) -->
<svg width="52.917mm" height="79.375mm" version="1.1" viewBox="0 0 52.917 79.375" xmlns="http://www.w3.org/2000/svg" xmlns:xlink="http://www.w3.org/1999/xlink">
 <defs>
  <linearGradient id="linearGradient4836" x1="-52.692" x2="-80.158" y1="84.563" y2="46.225" gradientTransform="translate(172.86 90.215)" gradientUnits="userSpaceOnUse">
   <stop stop-color="#e9be1f" offset="0"/>
   <stop stop-color="#ffd700" offset="1"/>
  </linearGradient>
 </defs>
 <g transform="translate(-83.351 -109.68)">
  <path x="83.350998" y="109.68211" width="52.916668" height="79.375" d="m85.997 109.68h47.625a2.6458 2.6458 45 0 1 2.6458 2.6458v74.083a2.6458 2.6458 135 0 1-2.6458 2.6458h-47.625a2.6458 2.6458 45 0 1-2.6458-2.6458v-74.083a2.6458 2.6458 135 0 1 2.6458-2.6458z" fill="#f4f4f4" stroke-width=".20646"/>
  <g transform="matrix(1 0 0 1.3245 88.505 161.42)">
   <path x="-5.1540499" y="-39.06377" width="52.916668" height="21.166666" d="m-2.5082-39.064h47.625a2.6458 2.6458 45 0 1 2.6458 2.6458v15.875a2.6458 2.6458 135 0 1-2.6458 2.6458h-47.625a2.6458 2.6458 45 0 1-2.6458-2.6458v-15.875a2.6458 2.6458 135 0 1 2.6458-2.6458z" fill="#f4f4f4" stroke-width=".26458"/>
  </g>
  <g transform="matrix(.26458 0 0 .26458 835.13 319.66)" style="shape-inside:url(#rect4576-3-7);white-space:pre" aria-label="11">
   <path d="m-2769.1-719.19v-10h5.9375v-18.438h-6.5625v-9.1562l21.406-5.2812v32.875h4.8438v10z"/>
   <path d="m-2738.7-719.19v-10h5.9375v-18.438h-6.5625v-9.1562l21.406-5.2812v32.875h4.8438v10z"/>
  </g>
  <path d="m129.81 150.27c0 1.5316-1.2418 2.7734-2.7734 2.7734-0.0172 0-0.0316-9e-3 -0.0488-9e-3l-3.5028 19.268c-0.19254 1.0491-1.1078 1.8187-2.1825 1.8187h-22.922c-1.0719 0-1.9913-0.76686-2.1827-1.8215l-3.5022-19.264c-0.01728 0-0.0319 7e-3 -0.11163 7e-3 -1.5316 0-2.7734-1.2418-2.7734-2.7734s1.3042-2.7734 2.7734-2.7734c1.4692 0 2.7734 1.2418 2.7734 2.7734 0 0.62389-0.24414 1.1711-0.59194 1.6342l6.2146 4.9714c1.1032 0.88265 2.7388 0.52307 3.3704-0.74051l3.9938-7.9875c-0.78371-0.48883-1.3384-1.3209-1.3384-2.3151 0-1.5316 1.3035-2.7734 2.8358-2.7734 1.5323 0 2.711 1.2418 2.711 2.7734 0 0.99427-0.55212 1.8263-1.3382 2.3158l3.9938 7.9875c0.63171 1.2633 2.268 1.6225 3.3704 0.74051l6.2146-4.9714c-0.28705-0.46316-0.52973-1.0733-0.52973-1.6349 0-1.5323 1.2411-2.7734 2.7734-2.7734s2.7734 1.2411 2.7734 2.7734z" fill="url(#linearGradient4836)" stroke-width=".069336"/>
 </g>
</svg>
