<?xml version="1.0" encoding="UTF-8"?>
<!-- Created with Inkscape (http://www.inkscape.org/) -->
<svg width="52.917mm" height="79.375mm" version="1.1" viewBox="0 0 52.917 79.375" xmlns="http://www.w3.org/2000/svg" xmlns:xlink="http://www.w3.org/1999/xlink">
 <defs>
  <linearGradient id="linearGradient11816" x1="59.027" x2="89.606" y1="5.6797" y2="55.378" gradientUnits="userSpaceOnUse">
   <stop stop-color="#d40000" offset="0"/>
   <stop stop-color="#881010" offset="1"/>
  </linearGradient>
 </defs>
 <g transform="translate(-78.907 -82.045)">
  <path x="78.906761" y="82.044991" width="52.916668" height="79.375" d="m81.553 82.045h47.625a2.6458 2.6458 45 0 1 2.6458 2.6458v74.083a2.6458 2.6458 135 0 1-2.6458 2.6458h-47.625a2.6458 2.6458 45 0 1-2.6458-2.6458v-74.083a2.6458 2.6458 135 0 1 2.6458-2.6458z" fill="#f4f4f4" stroke-width=".20646"/>
  <g transform="translate(36.729 103.23)">
   <path x="42.177708" y="-21.18487" width="52.916668" height="21.166666" d="m44.824-21.185h47.625a2.6458 2.6458 45 0 1 2.6458 2.6458v15.875a2.6458 2.6458 135 0 1-2.6458 2.6458h-47.625a2.6458 2.6458 45 0 1-2.6458-2.6458v-15.875a2.6458 2.6458 135 0 1 2.6458-2.6458z" fill="#f4f4f4" stroke-width=".26458"/>
   <g transform="matrix(.26458 0 0 .26458 56.732 -15.01)" style="shape-inside:url(#rect3540-7);white-space:pre" aria-label="FIRE">
    <path d="m1 29.116v-5.3906h2.5v-14.094h-2.5v-5.3906h21.812v10.344h-5.1562l-0.54688-5.0313h-5.6719v4.2188h4.0625v5.3125h-4.0625v4.6406h4.5312v5.3906z"/>
    <path d="m24.203 29.116v-5.3906h2.6562v-14.094h-2.6562v-5.3906h13.438v5.3906h-2.6562v14.094h2.6562v5.3906z"/>
    <path d="m39.484 29.116v-5.3906h2.5v-14.094h-2.5v-5.3906h14.359q4.6562 0 7.1562 1.75 2.5 1.7344 2.5 5.0938 0 2.1719-1.0781 3.6094t-2.9219 2.0469q1.4688 0.48438 2.1719 1.5156 0.71875 1.0312 0.75 2.5156l0.03125 1.2969q0.03125 0.82812 0.35938 1.25 0.34375 0.40625 1.1562 0.40625h1.6562v5.3906h-5.4375q-2.9844 0-4.4219-1.375-1.4219-1.3906-1.4531-4.0625l-0.03125-2.0781q-0.04687-2.5-2.3125-2.5h-2.0469v4.625h2.1094v5.3906zm12.859-19.641h-2.4219v5.2813h2.4219q3 0 3-2.6406 0-2.6406-3-2.6406z"/>
    <path d="m66.859 29.116v-5.3906h2.5v-14.094h-2.5v-5.3906h22.125v9.8906h-5.1562l-0.54688-4.5781h-5.9844v4.2188h4.2188v5.3125h-4.2188v4.7188h5.9844l0.54688-5.2656h5.1562v10.578z"/>
   </g>
   <text x="128.22963" y="-17.039335" fill="#000000" font-family="sans-serif" font-size="10.583px" stroke-width=".26458" style="line-height:1.25" xml:space="preserve"><tspan x="128.22963" y="-17.039335" stroke-width=".26458"/></text>
   <path d="m83.636 28.555c0 8.3438-6.7266 15.07-15 15.07-8.2734 0-15-6.7289-15-15 0-4.5836 2.1734-8.3438 4.2633-10.477 1.1695-1.2969 3.2367-0.47656 3.2367 1.2188v6.6797c0 2.7477 2.1852 5.0391 4.9344 5.0734 2.7922 0.04375 5.0656-2.2141 5.0656-4.9953 0-6.875-13.68-7.5094-4.0742-21.656 1.0547-1.5406 3.4492-0.84141 3.4492 1.018-0.07031 8.0602 13.125 9.8336 13.125 23.068z" fill="url(#linearGradient11816)" stroke-width=".078125"/>
  </g>
 </g>
</svg>
