<?xml version="1.0" encoding="UTF-8"?>
<!-- Created with Inkscape (http://www.inkscape.org/) -->
<svg width="52.917mm" height="79.375mm" version="1.1" viewBox="0 0 52.917 79.375" xmlns="http://www.w3.org/2000/svg" xmlns:xlink="http://www.w3.org/1999/xlink">
 <defs>
  <linearGradient id="linearGradient14484" x1="56.653" x2="80.696" y1="2.2974" y2="42.004" gradientTransform="translate(138.28 215.49)" gradientUnits="userSpaceOnUse">
   <stop stop-color="#0078ff" offset="0"/>
   <stop stop-color="#002ec9" offset="1"/>
  </linearGradient>
 </defs>
 <g transform="translate(-180.46 -194.3)">
  <g transform="translate(-4.0767 194.3)">
   <path x="184.53392" y="2.220446e-16" width="52.916668" height="79.375" d="m187.18 0h47.625a2.6458 2.6458 45 0 1 2.6458 2.6458v74.083a2.6458 2.6458 135 0 1-2.6458 2.6458h-47.625a2.6458 2.6458 45 0 1-2.6458-2.6458v-74.083a2.6458 2.6458 135 0 1 2.6458-2.6458z" fill="#f4f4f4" stroke-width=".20646"/>
  </g>
  <path x="180.45721" y="194.30489" width="52.916668" height="21.166666" d="m183.1 194.3h47.625a2.6458 2.6458 45 0 1 2.6458 2.6458v15.875a2.6458 2.6458 135 0 1-2.6458 2.6458h-47.625a2.6458 2.6458 45 0 1-2.6458-2.6458v-15.875a2.6458 2.6458 135 0 1 2.6458-2.6458z" fill="#f4f4f4" stroke-width=".26458"/>
  <g transform="matrix(.26458 0 0 .26458 189.96 200.48)" style="shape-inside:url(#rect3540-7-7-0);white-space:pre" aria-label="FLOOD">
   <path d="m1 29.116v-5.3906h2.5v-14.094h-2.5v-5.3906h21.812v10.344h-5.1562l-0.54688-5.0313h-5.6719v4.2188h4.0625v5.3125h-4.0625v4.6406h4.5312v5.3906z"/>
   <path d="m24.359 29.116v-5.3906h2.5v-14.094h-2.5v-5.3906h14.062v5.3906h-3.4375v14.172h5.0938l0.625-5.8281h5.1562v11.141z"/>
   <path d="m60.047 29.569q-3.8594 0-6.6719-1.5469-2.7969-1.5625-4.3125-4.4531t-1.5156-6.8594q0-4 1.5156-6.8906 1.5156-2.9062 4.3125-4.4688 2.8125-1.5625 6.6719-1.5625 3.875 0 6.6719 1.5625t4.3125 4.4688q1.5156 2.8906 1.5156 6.8906 0 3.9688-1.5156 6.8594t-4.3125 4.4531q-2.7969 1.5469-6.6719 1.5469zm0-5.3906q1.75 0 2.6875-1.9062t0.9375-5.6094-0.9375-5.6094q-0.9375-1.9063-2.6875-1.9063t-2.6875 1.9063q-0.9375 1.9062-0.9375 5.6094t0.9375 5.6094 2.6875 1.9062z"/>
   <path d="m87.172 29.569q-3.8594 0-6.6719-1.5469-2.7969-1.5625-4.3125-4.4531t-1.5156-6.8594q0-4 1.5156-6.8906 1.5156-2.9062 4.3125-4.4688 2.8125-1.5625 6.6719-1.5625 3.875 0 6.6719 1.5625t4.3125 4.4688q1.5156 2.8906 1.5156 6.8906 0 3.9688-1.5156 6.8594t-4.3125 4.4531q-2.7969 1.5469-6.6719 1.5469zm0-5.3906q1.75 0 2.6875-1.9062t0.9375-5.6094-0.9375-5.6094q-0.9375-1.9063-2.6875-1.9063t-2.6875 1.9063q-0.9375 1.9062-0.9375 5.6094t0.9375 5.6094 2.6875 1.9062z"/>
   <path d="m101.66 29.116v-5.3906h2.5v-14.094h-2.5v-5.3906h11.344q6.9219 0 10.531 3.1875 3.6094 3.1719 3.6094 9.2813 0 6.0938-3.5938 9.25t-10.562 3.1562zm10.625-5.2344h0.85938q2.75 0 3.9375-1.6562 1.1875-1.6719 1.1875-5.5625 0-3.875-1.1875-5.5312-1.1875-1.6563-3.9375-1.6563h-0.85938z"/>
  </g>
  <path d="m225.09 237.47c-2.1686-0.39711-3.2525-1.3929-3.2726-1.4103-0.85201-0.84646-2.2477-0.83951-3.1226-0.0271-0.0694 0.0651-1.7457 1.5971-5.1197 1.5971-3.374 0-5.0503-1.5318-5.0954-1.5707-0.84646-0.8527-2.2422-0.83881-3.1171-0.0264-0.0694 0.0651-1.7457 1.5971-5.1197 1.5971-3.374 0-5.0461-1.5276-5.0947-1.5693-0.84714-0.85409-2.2394-0.84715-3.115-0.0208-0.0451 0.0347-1.1291 1.0346-3.2983 1.4304-1.2068 0.22137-2.0061 1.3777-1.786 2.5845 0.22137 1.2068 1.3735 2.02 2.5866 1.786 1.7589-0.32219 3.1053-0.92631 4.0406-1.4749 1.354 0.80062 3.574 1.7137 6.6689 1.7137 3.0935 0 5.3114-0.91103 6.6661-1.7117 1.3554 0.80063 3.5726 1.7075 6.6661 1.7075 3.0956 0 5.3155-0.90895 6.6696-1.7096 0.93534 0.5512 2.2818 1.1541 4.0406 1.4756 1.2193 0.23436 2.3651-0.57939 2.5866-1.786 0.2229-1.2034-0.57564-2.363-1.7839-2.5852zm0 10.013c-2.1686-0.39712-3.2525-1.3929-3.2726-1.4103-0.84854-0.84646-2.2436-0.8416-3.1185-0.026-0.0736 0.0615-1.7471 1.596-5.1218 1.596s-5.0503-1.5318-5.0954-1.5707c-0.84854-0.85062-2.2429-0.84159-3.1171-0.026-0.0715 0.0622-1.745 1.5967-5.1197 1.5967s-5.0503-1.5318-5.0954-1.5707c-0.84853-0.85062-2.2415-0.84437-3.1171-0.0239-0.0456 0.0412-1.1298 1.0374-3.2983 1.4346-1.2068 0.22137-2.0061 1.3777-1.786 2.5845 0.22242 1.2071 1.3749 2.0195 2.588 1.7834 1.7582-0.31942 3.1046-0.92354 4.0399-1.4721 1.354 0.80063 3.5768 1.7096 6.6716 1.7096 3.0935 0 5.3086-0.90687 6.6633-1.7075 1.354 0.79646 3.5761 1.7061 6.673 1.7061 3.0956 0 5.312-0.90895 6.6036-1.7096 0.93534 0.5512 2.2818 1.1541 4.0406 1.4756 1.2784 0.23401 2.4241-0.57842 2.6463-1.7866 0.2222-1.2082-0.57634-2.3609-1.7846-2.5831zm-35.554-15.644c1.7589-0.32115 3.1053-0.92422 4.0406-1.4756 1.354 0.80062 3.574 1.7137 6.6689 1.7137 3.0935 0 5.3114-0.91104 6.6661-1.7117 1.3554 0.80062 3.5726 1.7075 6.6661 1.7075 3.0956 0 5.3155-0.90895 6.6696-1.7096 0.93534 0.5512 2.2818 1.1541 4.0406 1.4756 1.2193 0.23436 2.3651-0.57939 2.5866-1.786 0.22026-1.2068-0.5794-2.363-1.786-2.5845-2.1686-0.39711-3.2525-1.3929-3.2726-1.4103-0.84853-0.84645-2.2436-0.84159-3.1185-0.026-0.0694 0.0651-1.7457 1.5971-5.1197 1.5971-3.374 0-5.0503-1.5318-5.0954-1.5707-0.84854-0.85062-2.2429-0.8416-3.1171-0.026-0.0694 0.0651-1.7457 1.5971-5.1197 1.5971-3.374 0-5.0489-1.529-5.0975-1.5679-0.84714-0.85062-2.2394-0.84437-3.115-0.0243-0.0451 0.0417-1.1291 1.0374-3.2983 1.4346-1.2068 0.22137-2.0061 1.3777-1.786 2.5845 0.22172 1.2062 1.3742 2.0186 2.5873 1.7825z" fill="url(#linearGradient14484)" stroke-width=".069438"/>
 </g>
</svg>
