<?xml version="1.0" encoding="UTF-8"?>
<!-- Created with Inkscape (http://www.inkscape.org/) -->
<svg width="52.917mm" height="79.375mm" version="1.1" viewBox="0 0 52.917 79.375" xmlns="http://www.w3.org/2000/svg" xmlns:xlink="http://www.w3.org/1999/xlink">
 <defs>
  <linearGradient id="linearGradient2915" x1="-84.746" x2="-56.1" y1="35.712" y2="78.179" gradientTransform="translate(180.83 94.398)" gradientUnits="userSpaceOnUse">
   <stop stop-color="#ffd700" offset="0"/>
   <stop stop-color="#e9be1f" offset="1"/>
  </linearGradient>
 </defs>
 <g transform="translate(-85.663 -108.38)">
  <path x="85.66288" y="108.37607" width="52.916668" height="79.375" d="m88.309 108.38h47.625a2.6458 2.6458 45 0 1 2.6458 2.6458v74.083a2.6458 2.6458 135 0 1-2.6458 2.6458h-47.625a2.6458 2.6458 45 0 1-2.6458-2.6458v-74.083a2.6458 2.6458 135 0 1 2.6458-2.6458z" fill="#f4f4f4" stroke-width=".20646"/>
  <g transform="matrix(1 0 0 1.3245 90.817 160.12)">
   <path x="-5.1540499" y="-39.06377" width="52.916668" height="21.166666" d="m-2.5082-39.064h47.625a2.6458 2.6458 45 0 1 2.6458 2.6458v15.875a2.6458 2.6458 135 0 1-2.6458 2.6458h-47.625a2.6458 2.6458 45 0 1-2.6458-2.6458v-15.875a2.6458 2.6458 135 0 1 2.6458-2.6458z" fill="#f4f4f4" stroke-width=".26458"/>
  </g>
  <path d="m128.79 168.13h-2.2272l-6.2724-6.6905 9.7642-5.4884c1.2764-0.71183 2.066-2.057 2.066-3.5154 0-1.4931-0.816-2.8473-2.1181-3.5591-2.8126-1.5452-6.8801-2.8772-6.8801-2.8772-0.47155-2.5792-2.7147-4.537-5.4439-4.537-2.7293 0-4.9842 1.9619-5.453 4.5488-11.305 1.0764-20.138 10.598-20.103 22.188 9e-3 2.4237 2.023 4.3751 4.4446 4.3751h21.112c0.61633 0 1.1111-0.49481 1.1111-1.1112 0-1.841-1.4924-3.3334-3.2709-3.3334h-3.6529l1.6618-2.2487c1.6841-2.5091 0.72086-6.1287-2.3355-7.3961-1.6528-0.69585-3.5834-0.32779-5.014 0.75558l-2.2778 1.7014c-0.49481 0.37327-1.1889 0.27778-1.5542-0.21702-0.37328-0.49481-0.2778-1.1889 0.21701-1.5542l2.4133-1.814c2.5605-1.9181 6.137-1.9181 8.6878 0 0.75557 0.56426 3.1862 2.7084 2.839 6.4676l8.2312 8.7499h6.2766c0.61634 0 1.1112-0.49481 1.1112-1.1112 1e-3 -1.8403-1.4917-3.3334-3.3321-3.3334zm-12.778-21.112c0-0.92016 0.74655-1.6667 1.6667-1.6667 0.92016 0 1.6667 0.74656 1.6667 1.6667 0 0.92017-0.74656 1.6667-1.6667 1.6667-0.92017 0-1.6667-0.74308-1.6667-1.6667z" fill="url(#linearGradient2915)"/>
  <g transform="matrix(.26458 0 0 .26458 840.32 318.27)" style="shape-inside:url(#rect4576);white-space:pre" aria-label="7">
   <path d="m-2768-719.19 16.625-32.094h-10l-0.7813 7.1875-8.4375-0.0312v-17.312h36.656v8.9062l-16.25 33.344z"/>
  </g>
 </g>
</svg>
