<?xml version="1.0" encoding="UTF-8"?>
<!-- Created with Inkscape (http://www.inkscape.org/) -->
<svg width="52.917mm" height="79.375mm" version="1.1" viewBox="0 0 52.917 79.375" xmlns="http://www.w3.org/2000/svg" xmlns:xlink="http://www.w3.org/1999/xlink">
 <defs>
  <linearGradient id="linearGradient3726" x1="-81.339" x2="-52.553" y1="136.61" y2="179.26" gradientUnits="userSpaceOnUse" xlink:href="#linearGradient3732"/>
  <linearGradient id="linearGradient3732">
   <stop stop-color="#ffd700" offset="0"/>
   <stop stop-color="#e9be1f" offset="1"/>
  </linearGradient>
 </defs>
 <g transform="translate(-62.273 -117.79)">
  <path x="62.273438" y="117.79075" width="52.916668" height="79.375" d="m64.919 117.79h47.625a2.6458 2.6458 45 0 1 2.6458 2.6458v74.083a2.6458 2.6458 135 0 1-2.6458 2.6458h-47.625a2.6458 2.6458 45 0 1-2.6458-2.6458v-74.083a2.6458 2.6458 135 0 1 2.6458-2.6458z" fill="#f4f4f4" stroke-width=".20646"/>
  <g transform="matrix(1 0 0 1.3245 67.427 169.53)">
   <path x="-5.1540499" y="-39.06377" width="52.916668" height="21.166666" d="m-2.5082-39.064h47.625a2.6458 2.6458 45 0 1 2.6458 2.6458v15.875a2.6458 2.6458 135 0 1-2.6458 2.6458h-47.625a2.6458 2.6458 45 0 1-2.6458-2.6458v-15.875a2.6458 2.6458 135 0 1 2.6458-2.6458z" fill="#f4f4f4" stroke-width=".26458"/>
  </g>
  <g transform="matrix(.26458 0 0 .26458 816.94 327.68)" style="shape-inside:url(#rect4576-36);white-space:pre" aria-label="7">
   <path d="m-2768-719.19 16.625-32.094h-10l-0.7813 7.1875-8.4375-0.0312v-17.312h36.656v8.9062l-16.25 33.344z"/>
  </g>
  <g transform="matrix(.89167 0 0 .89167 145.49 26.335)" fill="url(#linearGradient3726)">
   <path d="m-44.347 162.5c-0.38848-0.8912-1.2644-1.4625-2.2394-1.4625h-4.875l1e-5 -15.844c0-1.6072-1.3711-3.0468-3.0468-3.0468s-3.0468 1.3711-3.0468 3.0468l-1e-5 10.207c0 0.41894-0.34276 0.76172-0.76171 0.76172h-1.5234c-0.41894 0-0.76171-0.34278-0.76171-0.69316v-13.322c0-1.6072-1.3025-3.0468-2.9783-3.0468-1.6758 0-3.1839 1.3711-3.1839 3.0468v13.254c0 0.41894-0.27422 0.76172-0.76172 0.76172h-1.5234c-0.35039 0-0.76171-0.34278-0.76171-0.76172v-10.207c0-1.6072-1.3711-3.0468-3.0468-3.0468-1.6758 0-3.0468 1.3711-3.0468 3.0468v15.844h-4.8072c-0.97119 0-1.8469 0.57128-2.2373 1.4625-0.38085 0.8912-0.20948 1.9271 0.45703 2.6431l7.8151 8.3788c2.657 2.9097 6.7474 4.5779 11.028 4.5779 4.2808 0 8.2341-1.6666 11.03-4.5802l7.8151-8.3788c0.66269-0.71372 0.83789-1.7496 0.45703-2.6408zm-19.302 8.2874c-4.0371 0-7.3132-4.875-7.3132-4.875s3.2753-4.8749 7.3132-4.8749c4.0378 0 7.3132 4.8749 7.3132 4.8749s-3.2761 4.875-7.3132 4.875zm0-7.3124c-1.3429 0-2.4375 1.0953-2.4375 2.4375 0 1.3421 1.0953 2.4375 2.4375 2.4375 1.3421 0 2.4375-1.0953 2.4375-2.4375 0-1.3421-1.0969-2.4375-2.4375-2.4375z" fill="url(#linearGradient3726)" stroke-width=".076171"/>
  </g>
 </g>
</svg>
