<?xml version="1.0" encoding="UTF-8"?>
<!-- Created with Inkscape (http://www.inkscape.org/) -->
<svg width="52.917mm" height="79.375mm" version="1.1" viewBox="0 0 52.917 79.375" xmlns="http://www.w3.org/2000/svg" xmlns:xlink="http://www.w3.org/1999/xlink">
 <defs>
  <linearGradient id="linearGradient2525" x1="-148.39" x2="-118.44" y1="44.93" y2="84.504" gradientTransform="translate(289.39 167.84)" gradientUnits="userSpaceOnUse">
   <stop stop-color="#ffd700" offset="0"/>
   <stop stop-color="#e9be1f" offset="1"/>
  </linearGradient>
 </defs>
 <g transform="translate(-133.68 -186.54)">
  <path x="133.67845" y="186.53723" width="52.916668" height="79.375" d="m136.32 186.54h47.625a2.6458 2.6458 45 0 1 2.6458 2.6458v74.083a2.6458 2.6458 135 0 1-2.6458 2.6458h-47.625a2.6458 2.6458 45 0 1-2.6458-2.6458v-74.083a2.6458 2.6458 135 0 1 2.6458-2.6458z" fill="#f4f4f4" stroke-width=".20646"/>
  <g transform="matrix(1 0 0 1.3245 138.83 238.28)">
   <path x="-5.1540499" y="-39.06377" width="52.916668" height="21.166666" d="m-2.5082-39.064h47.625a2.6458 2.6458 45 0 1 2.6458 2.6458v15.875a2.6458 2.6458 135 0 1-2.6458 2.6458h-47.625a2.6458 2.6458 45 0 1-2.6458-2.6458v-15.875a2.6458 2.6458 135 0 1 2.6458-2.6458z" fill="#f4f4f4" stroke-width=".26458"/>
  </g>
  <g transform="matrix(.26458 0 0 .26458 885.46 396.51)" style="shape-inside:url(#rect4576-3);white-space:pre" aria-label="11">
   <path d="m-2769.1-719.19v-10h5.9375v-18.438h-6.5625v-9.1562l21.406-5.2812v32.875h4.8438v10z"/>
   <path d="m-2738.7-719.19v-10h5.9375v-18.438h-6.5625v-9.1562l21.406-5.2812v32.875h4.8438v10z"/>
  </g>
  <path d="m140.24 232.32c-0.38438 0.38438-0.60059 0.90328-0.60059 1.4478v8.2c0 0.54453 0.21621 1.0647 0.60059 1.4491 0.38437 0.38437 0.90488 0.60091 1.4494 0.60091h2.05v-12.3h-2.05c-0.54453 0-1.0647 0.21781-1.4494 0.60218zm29.124-8.8022h-7.175v-4.1c0-1.1288-0.92122-2.05-2.05-2.05s-2.05 0.92121-2.05 2.05v4.1h-7.175c-2.8316 0-5.125 2.2934-5.125 5.125v17.425c0 2.2665 1.8335 4.1 4.1 4.1h20.5c2.2665 0 4.1-1.8335 4.1-4.1v-17.425c0-2.8316-2.287-5.125-5.125-5.125zm-13.325 20.5h-4.1v-2.05h4.1zm-2.05-7.6875c-1.4158 0-2.5625-1.1467-2.5625-2.5625 0-1.4158 1.1467-2.5625 2.5625-2.5625s2.5625 1.1467 2.5625 2.5625c0 1.4158-1.1467 2.5625-2.5625 2.5625zm8.2 7.6875h-4.1v-2.05h4.1zm6.15 0h-4.1v-2.05h4.1zm-2.05-7.6875c-1.4171 0-2.5625-1.1454-2.5625-2.5625 0-1.4171 1.1467-2.5625 2.5625-2.5625s2.5625 1.1467 2.5625 2.5625c0 1.4158-1.1467 2.5625-2.5625 2.5625zm13.748-4.0103c-0.38437-0.38437-0.90328-0.60218-1.4478-0.60218h-2.05v12.3h2.05c0.54453 0 1.0647-0.21621 1.4491-0.60059 0.38438-0.38437 0.60091-0.90488 0.60091-1.4494v-8.2c0-0.54453-0.21781-1.0634-0.60219-1.4478z" fill="url(#linearGradient2525)" stroke-width=".064062"/>
 </g>
</svg>
