<?xml version="1.0" encoding="UTF-8"?>
<!-- Created with Inkscape (http://www.inkscape.org/) -->
<svg width="52.917mm" height="79.375mm" version="1.1" viewBox="0 0 52.917 79.375" xmlns="http://www.w3.org/2000/svg" xmlns:xlink="http://www.w3.org/1999/xlink">
 <defs>
  <linearGradient id="linearGradient13918" x1="56.234" x2="76.228" y1="-.48446" y2="48.394" gradientUnits="userSpaceOnUse">
   <stop stop-color="#8c4e26" offset="0"/>
   <stop stop-color="#502d16" offset="1"/>
  </linearGradient>
 </defs>
 <g transform="translate(-108.71 -137.83)">
  <path x="108.71117" y="137.83395" width="52.917" height="79.375" d="m111.36 137.83h47.625a2.6458 2.6458 45 0 1 2.6458 2.6458v74.083a2.6458 2.6458 135 0 1-2.6458 2.6458h-47.625a2.6458 2.6458 45 0 1-2.6458-2.6458v-74.083a2.6458 2.6458 135 0 1 2.6458-2.6458z" fill="#f4f4f4" stroke-width=".20646"/>
  <g transform="translate(66.533 159.02)">
   <path x="42.177708" y="-21.18487" width="52.916668" height="21.166666" d="m44.824-21.185h47.625a2.6458 2.6458 45 0 1 2.6458 2.6458v15.875a2.6458 2.6458 135 0 1-2.6458 2.6458h-47.625a2.6458 2.6458 45 0 1-2.6458-2.6458v-15.875a2.6458 2.6458 135 0 1 2.6458-2.6458z" fill="#f4f4f4" stroke-width=".26458"/>
   <g transform="matrix(.26458 0 0 .26458 51.18 -15.01)" style="shape-inside:url(#rect3540-7-7);white-space:pre" aria-label="ROCKS">
    <path d="m1 29.116v-5.3906h2.5v-14.094h-2.5v-5.3906h14.359q4.6562 0 7.1562 1.75 2.5 1.7344 2.5 5.0938 0 2.1719-1.0781 3.6094t-2.9219 2.0469q1.4688 0.48438 2.1719 1.5156 0.71875 1.0312 0.75 2.5156l0.03125 1.2969q0.03125 0.82812 0.35938 1.25 0.34375 0.40625 1.1562 0.40625h1.6562v5.3906h-5.4375q-2.9844 0-4.4219-1.375-1.4219-1.3906-1.4531-4.0625l-0.03125-2.0781q-0.04687-2.5-2.3125-2.5h-2.0469v4.625h2.1094v5.3906zm12.859-19.641h-2.4219v5.2813h2.4219q3 0 3-2.6406 0-2.6406-3-2.6406z"/>
    <path d="m40.859 29.569q-3.8594 0-6.6719-1.5469-2.7969-1.5625-4.3125-4.4531t-1.5156-6.8594q0-4 1.5156-6.8906 1.5156-2.9062 4.3125-4.4688 2.8125-1.5625 6.6719-1.5625 3.875 0 6.6719 1.5625t4.3125 4.4688q1.5156 2.8906 1.5156 6.8906 0 3.9688-1.5156 6.8594t-4.3125 4.4531q-2.7969 1.5469-6.6719 1.5469zm0-5.3906q1.75 0 2.6875-1.9062t0.9375-5.6094-0.9375-5.6094q-0.9375-1.9063-2.6875-1.9063t-2.6875 1.9063q-0.9375 1.9062-0.9375 5.6094t0.9375 5.6094 2.6875 1.9062z"/>
    <path d="m69.297 29.569q-4.2344 0-7.3438-1.625-3.0938-1.625-4.7812-4.6406t-1.6875-7.1719q0-2.9844 0.875-5.2812 0.89062-2.2969 2.4375-3.875 1.5625-1.5781 3.5781-2.375 2.0156-0.8125 4.2812-0.8125 2.375 0 4.1094 0.75t2.8594 2.1875l0.79688-2.4844h4.2969v10.344h-5.7031q-0.125-3-1.1875-4.1406-1.0469-1.1406-2.75-1.1406-1.25 0-2.3438 0.70313-1.0781 0.70312-1.75 2.1562-0.65625 1.4531-0.65625 3.7188 0 3.3438 1.7344 5.125 1.75 1.7656 4.9062 1.7656 1.8594 0 3.6406-0.625t3.3125-1.9219l0.42188 0.1875v6.5938q-1.8125 1.3281-4.2812 1.9531-2.4531 0.60938-4.7656 0.60938z"/>
    <path d="m81.156 29.116v-5.3906h2.5v-14.094h-2.5v-5.3906h12.328v5.3906h-1.8906v5.8438l6.125-5.8438h-1.8906v-5.3906h10.281v5.3906h-2.1094l-6.1875 5.7031h0.59375q2.8438 0 4.2344 1.3906 1.3906 1.375 1.4531 4.0469l0.0312 1.2969q0.0312 0.82812 0.35938 1.25 0.34375 0.40625 1.1562 0.40625h1.6562v5.3906h-5.4375q-2.9844 0-4.4219-1.375-1.4219-1.3906-1.4531-4.0625l-0.03125-2.0781q-0.04687-2.5-2.3125-2.5h-2.0468v4.625h2.1094v5.3906z"/>
    <path d="m121.67 29.569q-2.9688 0-4.9062-0.78125-1.9375-0.79688-3.0938-2.125l-0.79688 2.4531h-4.2969v-8.375h5.8281q0.29688 1.8125 1.8125 2.9844 1.5156 1.1562 3.8281 1.1562 1.2656 0 1.9531-0.5 0.6875-0.51562 0.6875-1.4062 0-0.96875-0.76562-1.4688-0.76563-0.5-2.0312-0.78125-1.2656-0.28125-2.7812-0.54688-1.5156-0.26562-3.0312-0.73438-1.5156-0.46875-2.7812-1.375-1.2656-0.90625-2.0312-2.4531-0.76563-1.5625-0.76563-4 0-2.3594 1.125-4.125 1.1406-1.7656 3.2656-2.75t5.0938-0.98438q2.6562 0 4.4375 0.76562t2.9062 2.1719l0.79687-2.4531h4.2969v8.0625h-5.9531q-0.45312-1.8594-1.8125-2.8594-1.3438-1-3.125-1-1.2656 0-2.0156 0.48438-0.75 0.46875-0.75 1.3906 0 0.85938 0.76562 1.3125 0.76563 0.45312 2.0312 0.73438 1.2656 0.28125 2.7812 0.57812 1.5156 0.29688 3.0312 0.8125 1.5156 0.51562 2.7812 1.4531 1.2656 0.92188 2.0312 2.4688 0.76562 1.5469 0.76562 3.9219 0 3.7188-2.4688 5.8438-2.4687 2.125-6.8125 2.125z"/>
   </g>
   <text x="128.22963" y="-17.039335" fill="#000000" font-family="sans-serif" font-size="10.583px" stroke-width=".26458" style="line-height:1.25" xml:space="preserve"><tspan x="128.22963" y="-17.039335" stroke-width=".26458"/></text>
   <path d="m66.164 11.57c-0.1875-0.33542-0.1875-0.74792 0-1.0861l1.875-3.3333c0.19444-0.35 0.56944-0.56667 0.97222-0.56667h3.6944c0.40278 0 0.77778 0.21667 0.97222 0.56667l1.875 3.3333c0.1875 0.33819 0.1875 0.75069 0 1.0861l-1.875 3.3333c-0.19444 0.35416-0.56944 0.56944-0.97222 0.56944h-3.6944c-0.40278 0-0.77778-0.21528-0.97222-0.56944zm11.924 23.604c1.8125 1.75 0.56944 4.7431-1.9028 4.7431h-21.993c-3.0681 0-5.5556-2.4861-5.5556-5.5556v-21.993c0-2.4736 2.9924-3.7132 4.7417-1.9632zm2.2292-4.6597c-0.35417-0.19444-0.56944-0.56944-0.56944-0.97222v-3.6944c0-0.40278 0.21528-0.77778 0.56944-0.97222l3.3333-1.875c0.33333-0.1875 0.6875-0.1875 1.0833 0l3.3333 1.875c0.35417 0.19444 0.56944 0.56944 0.56944 0.97222v3.6944c0 0.40278-0.21528 0.77778-0.56944 0.97222l-3.3333 1.875c-0.39583 0.1875-0.75 0.1875-1.0833 0zm-18.347-21.708c0 1.2271-0.99306 2.2222-2.2222 2.2222s-2.2222-0.99514-2.2222-2.2222c0-1.2271 0.99306-2.2222 2.2222-2.2222s2.2222 0.99514 2.2222 2.2222zm11.111 13.333c0-1.2292 0.99306-2.2222 2.2222-2.2222 1.2292 0 2.2222 0.99306 2.2222 2.2222 0 1.2292-0.99306 2.2222-2.2222 2.2222-1.2292 0-2.2222-0.99306-2.2222-2.2222z" fill="url(#linearGradient13918)" stroke-width=".069444"/>
  </g>
 </g>
</svg>
