<?xml version="1.0" encoding="UTF-8"?>
<!-- Created with Inkscape (http://www.inkscape.org/) -->
<svg width="52.917mm" height="79.375mm" version="1.1" viewBox="0 0 52.917 79.375" xmlns="http://www.w3.org/2000/svg" xmlns:xlink="http://www.w3.org/1999/xlink">
 <defs>
  <linearGradient id="linearGradient3396" x1="49.337" x2="89.915" y1="-3.7422" y2="55.453" gradientUnits="userSpaceOnUse">
   <stop stop-color="#595959" offset="0"/>
   <stop offset="1"/>
  </linearGradient>
 </defs>
 <g transform="translate(-79.93 -84.091)">
  <path x="79.929726" y="84.090919" width="52.916668" height="79.375" d="m82.576 84.091h47.625a2.6458 2.6458 45 0 1 2.6458 2.6458v74.083a2.6458 2.6458 135 0 1-2.6458 2.6458h-47.625a2.6458 2.6458 45 0 1-2.6458-2.6458v-74.083a2.6458 2.6458 135 0 1 2.6458-2.6458z" fill="#f4f4f4" stroke-width=".20646"/>
  <g transform="translate(37.752 105.28)">
   <path x="42.177708" y="-21.18487" width="52.916668" height="21.166666" d="m44.824-21.185h47.625a2.6458 2.6458 45 0 1 2.6458 2.6458v15.875a2.6458 2.6458 135 0 1-2.6458 2.6458h-47.625a2.6458 2.6458 45 0 1-2.6458-2.6458v-15.875a2.6458 2.6458 135 0 1 2.6458-2.6458z" fill="#f4f4f4" stroke-width=".26458"/>
   <g transform="matrix(.26458 0 0 .26458 46.256 -15.01)" style="shape-inside:url(#rect3540);white-space:pre" aria-label="SPIDERS">
    <path d="m14.141 29.569q-2.9688 0-4.9062-0.78125-1.9375-0.79688-3.0938-2.125l-0.79688 2.4531h-4.2969v-8.375h5.8281q0.29688 1.8125 1.8125 2.9844 1.5156 1.1562 3.8281 1.1562 1.2656 0 1.9531-0.5 0.6875-0.51562 0.6875-1.4062 0-0.96875-0.76562-1.4688t-2.0312-0.78125-2.7812-0.54688-3.0312-0.73438-2.7812-1.375-2.0312-2.4531q-0.76562-1.5625-0.76562-4 0-2.3594 1.125-4.125 1.1406-1.7656 3.2656-2.75t5.0938-0.98438q2.6562 0 4.4375 0.76562t2.9062 2.1719l0.79688-2.4531h4.2969v8.0625h-5.9531q-0.45312-1.8594-1.8125-2.8594-1.3438-1-3.125-1-1.2656 0-2.0156 0.48438-0.75 0.46875-0.75 1.3906 0 0.85938 0.76562 1.3125t2.0312 0.73438 2.7812 0.57812 3.0312 0.8125 2.7812 1.4531q1.2656 0.92188 2.0312 2.4688t0.76562 3.9219q0 3.7188-2.4688 5.8438t-6.8125 2.125z"/>
    <path d="m25.391 29.116v-5.3906h2.5v-14.094h-2.5v-5.3906h13.422q5.0938 0 7.6875 1.9844 2.5938 1.9688 2.5938 5.9063 0 3.8125-2.5781 5.7812-2.5781 1.9531-7.5469 1.9531h-3.1406v3.8594h4.5312v5.3906zm12.516-19.641h-2.0781v5.625h1.9219q1.5938 0 2.3906-0.67188t0.79688-2.1406q0-1.4844-0.78125-2.1406-0.76562-0.67188-2.25-0.67188z"/>
    <path d="m50.625 29.116v-5.3906h2.6562v-14.094h-2.6562v-5.3906h13.438v5.3906h-2.6562v14.094h2.6562v5.3906z"/>
    <path d="m65.75 29.116v-5.3906h2.5v-14.094h-2.5v-5.3906h11.344q6.9219 0 10.531 3.1875 3.6094 3.1719 3.6094 9.2813 0 6.0938-3.5938 9.25t-10.562 3.1562zm10.625-5.2344h0.85938q2.75 0 3.9375-1.6562 1.1875-1.6719 1.1875-5.5625 0-3.875-1.1875-5.5312-1.1875-1.6563-3.9375-1.6563h-0.85938z"/>
    <path d="m93.375 29.116v-5.3906h2.5v-14.094h-2.5v-5.3906h22.125v9.8906h-5.1562l-0.54687-4.5781h-5.9844v4.2188h4.2188v5.3125h-4.2188v4.7188h5.9844l0.54687-5.2656h5.1562v10.578z"/>
    <path d="m118.41 29.116v-5.3906h2.5v-14.094h-2.5v-5.3906h14.359q4.6562 0 7.1562 1.75 2.5 1.7344 2.5 5.0938 0 2.1719-1.0781 3.6094-1.0781 1.4375-2.9219 2.0469 1.4688 0.48438 2.1719 1.5156 0.71875 1.0312 0.75 2.5156l0.0312 1.2969q0.0312 0.82812 0.35937 1.25 0.34375 0.40625 1.1562 0.40625h1.6562v5.3906h-5.4375q-2.9844 0-4.4219-1.375-1.4219-1.3906-1.4531-4.0625l-0.0312-2.0781q-0.0469-2.5-2.3125-2.5h-2.0469v4.625h2.1094v5.3906zm12.859-19.641h-2.4219v5.2813h2.4219q3 0 3-2.6406 0-2.6406-3-2.6406z"/>
    <path d="m158.92 29.569q-2.9688 0-4.9062-0.78125-1.9375-0.79688-3.0938-2.125l-0.79687 2.4531h-4.2969v-8.375h5.8281q0.29687 1.8125 1.8125 2.9844 1.5156 1.1562 3.8281 1.1562 1.2656 0 1.9531-0.5 0.6875-0.51562 0.6875-1.4062 0-0.96875-0.76563-1.4688-0.76562-0.5-2.0312-0.78125-1.2656-0.28125-2.7812-0.54688-1.5156-0.26562-3.0312-0.73438-1.5156-0.46875-2.7812-1.375-1.2656-0.90625-2.0312-2.4531-0.76562-1.5625-0.76562-4 0-2.3594 1.125-4.125 1.1406-1.7656 3.2656-2.75t5.0938-0.98438q2.6562 0 4.4375 0.76562t2.9062 2.1719l0.79688-2.4531h4.2969v8.0625h-5.9531q-0.45313-1.8594-1.8125-2.8594-1.3438-1-3.125-1-1.2656 0-2.0156 0.48438-0.75 0.46875-0.75 1.3906 0 0.85938 0.76563 1.3125 0.76562 0.45312 2.0312 0.73438 1.2656 0.28125 2.7812 0.57812 1.5156 0.29688 3.0312 0.8125 1.5156 0.51562 2.7812 1.4531 1.2656 0.92188 2.0312 2.4688 0.76562 1.5469 0.76562 3.9219 0 3.7188-2.4688 5.8438t-6.8125 2.125z"/>
   </g>
   <path d="m88.584 33.749c0.18897 0.61175-0.15571 1.2608-0.76949 1.3839l-1.1122 0.3412c-0.61443 0.18839-1.2658-0.15499-1.4549-0.76732l-1.7426-5.5661-5.7813-2.3041 3.8743 4.5032c0.36808 0.42778 0.50517 1.0064 0.36808 1.5535l-2.0455 7.9775c-0.15585 0.62095-0.7876 0.99845-1.4107 0.8434l-1.1289-0.28062c-0.62378-0.15513-1.0028-0.78471-0.84702-1.4057l1.8259-7.1022-2.7903-3.2439c0.01107 0.15977 0.04802 0.31207 0.04802 0.47452 0 3.8417-3.1265 6.9559-6.9827 6.9559-3.8562 0-6.9829-3.1168-6.9829-6.957 0-0.16245 0.03708-0.31446 0.04802-0.47408l-2.7903 3.2432 1.8259 7.1022c0.15586 0.62125-0.22346 1.2506-0.84702 1.4057l-1.1289 0.28062c-0.62335 0.15513-1.255-0.22259-1.4107-0.8434l-2.0455-7.9775c-0.13723-0.54654 0-1.1253 0.36808-1.5535l3.8743-4.5032-5.7813 2.3041-1.7397 5.6328c-0.18897 0.61204-0.8405 0.95571-1.4549 0.76732l-1.1122-0.3412c-0.61429-0.18839-0.9586-0.83688-0.77022-1.3839l1.9853-6.4262c0.15528-0.50278 0.5306-0.90861 1.0209-1.1042l7.5889-3.0846-7.5862-3.0236c-0.49053-0.19346-0.86514-0.66443-1.0209-1.0992l-1.9846-6.4269c-0.18897-0.61176 0.15571-1.2608 0.76949-1.3839l1.1122-0.3412c0.61443-0.18839 1.2658 0.15499 1.4549 0.76732l1.7397 5.6328 5.7813 2.3041-3.8743-4.5736c-0.36954-0.42749-0.50721-1.0072-0.36954-1.5506l2.0455-7.9775c0.15585-0.62096 0.78761-0.99846 1.4107-0.8434l1.1289 0.28063c0.62458 0.15658 1.0014 0.78594 0.78398 1.4076l-1.7607 7.1037 3.9054 4.5358 0.01117-1.7708c-0.1271-2.649 1.5249-4.9408 3.8798-5.7625 0.3725-0.12992 0.7608 0.16049 0.7608 0.55364v1.7338h2.3273v-1.7324c0-0.39438 0.39083-0.68421 0.76442-0.55364 2.2701 0.79275 3.8931 2.9382 3.8931 5.4669 0 0.10093-0.01293 0.19484-0.01805 0.29446l0.01805 1.7706 3.9062-4.5401-1.8259-7.1022c-0.15585-0.62125 0.22346-1.2506 0.84702-1.4057l1.1289-0.28063c0.62335-0.15513 1.255 0.22259 1.4107 0.8434l2.0455 7.9775c0.13723 0.54654 0 1.1253-0.36808 1.5535l-3.8743 4.5032 5.7813-2.3041 1.7397-5.6328c0.18897-0.61204 0.8405-0.95571 1.4549-0.76732l1.1122 0.3412c0.61429 0.18839 0.9586 0.83688 0.77022 1.3839l-1.9853 6.4262c-0.15527 0.50278-0.5306 0.90861-1.0209 1.1042l-7.5862 3.0877 7.5862 3.0236c0.48937 0.19498 0.86368 0.60016 1.0195 1.1021z" fill="url(#linearGradient3396)" stroke-width=".23559"/>
  </g>
 </g>
</svg>
