<?xml version="1.0" encoding="UTF-8"?>
<!-- Created with Inkscape (http://www.inkscape.org/) -->
<svg width="52.917mm" height="79.375mm" version="1.1" viewBox="0 0 52.917 79.375" xmlns="http://www.w3.org/2000/svg" xmlns:xlink="http://www.w3.org/1999/xlink">
 <defs>
  <linearGradient id="linearGradient5859" x1="-147.39" x2="-119.23" y1="228.6" y2="273.07" gradientTransform="matrix(.88707 0 0 .88707 212.34 -65.542)" gradientUnits="userSpaceOnUse">
   <stop stop-color="#ffd700" offset="0"/>
   <stop stop-color="#e9be1f" offset="1"/>
  </linearGradient>
 </defs>
 <g transform="translate(-71.405 -108.3)">
  <path x="71.405045" y="108.30102" width="52.916668" height="79.375" d="m74.051 108.3h47.625a2.6458 2.6458 45 0 1 2.6458 2.6458v74.083a2.6458 2.6458 135 0 1-2.6458 2.6458h-47.625a2.6458 2.6458 45 0 1-2.6458-2.6458v-74.083a2.6458 2.6458 135 0 1 2.6458-2.6458z" fill="#f4f4f4" stroke-width=".20646"/>
  <g transform="matrix(1 0 0 1.3245 76.559 160.04)">
   <path x="-5.1540499" y="-39.06377" width="52.916668" height="21.166666" d="m-2.5082-39.064h47.625a2.6458 2.6458 45 0 1 2.6458 2.6458v15.875a2.6458 2.6458 135 0 1-2.6458 2.6458h-47.625a2.6458 2.6458 45 0 1-2.6458-2.6458v-15.875a2.6458 2.6458 135 0 1 2.6458-2.6458z" fill="#f4f4f4" stroke-width=".26458"/>
  </g>
  <g transform="matrix(.26458 0 0 .26458 825.91 318.08)" style="shape-inside:url(#rect4576-2);white-space:pre" aria-label="5">
   <path d="m-2754.3-718.32q-2.75 0-5.5938-0.4375-2.8437-0.4375-5.2812-1.2188-2.4375-0.8125-4.0313-1.8438v-9.0625l0.8438-0.375q2 1.25 4.9062 2.2188 2.9063 0.96875 6.9688 0.96875 3.1562 0 5.3437-1 2.2188-1.0312 2.2188-3.5 0-2.5-2.25-3.5312-2.2188-1.0312-5.625-1.0312-2.6563 0-5.5 0.5625-2.8438 0.53125-5.4375 1.5625l-0.8438-0.375 1.875-26.062h30.312v10.781h-21.75l-0.4062 4.625q2.875-0.53125 5.8125-0.53125 8.6875 0 13.656 3.7188 5 3.6875 5 10.312t-5.1875 10.438q-5.1562 3.7812-15.031 3.7812z"/>
  </g>
  <path d="m96.943 159.6c0.37472-0.37473 1.0201-0.37473 1.3948 0l5.3433 5.3433c0.9854 0.9854 2.297 1.5267 3.6848 1.5267h1.0478l-6.7382 6.7382c-2.1026 2.0471-5.5168 2.0471-7.6195 0l-6.7659-6.759h0.64536c1.3879 0 2.6994-0.54127 3.6848-1.5267zm1.3948-5.1074c-0.44413 0.38166-1.0132 0.38861-1.3948 0l-5.3225-5.3225c-0.9854-1.0479-2.297-1.5267-3.6848-1.5267h-0.64536l6.759-6.7618c2.1096-2.1058 5.5238-2.1058 7.6264 0l6.7451 6.7409h-1.0548c-1.3879 0-2.6994 0.54128-3.6848 1.5267zm-10.402-5.2878c0.95763 0 1.8389 0.38861 2.5745 1.0687l5.3225 5.3225c0.49965 0.43718 1.1519 0.74946 1.8112 0.74946 0.6523 0 1.3046-0.31228 1.8042-0.74946l5.3434-5.3433c0.68005-0.67312 1.6169-1.0617 2.5745-1.0617h2.6162l4.0457 4.0457c2.1026 2.1026 2.1026 5.5168 0 7.6195l-4.0457 4.0457h-2.6162c-0.95764 0-1.8945-0.3886-2.5745-1.0687l-5.3434-5.3434c-0.96457-0.96457-2.6508-0.96457-3.6154 7e-3l-5.3225 5.3156c-0.73558 0.68006-1.6169 1.0687-2.5745 1.0687h-2.2081l-4.0262-4.0248c-2.1058-2.1026-2.1058-5.5168 0-7.6195l4.0262-4.0318z" fill="url(#linearGradient5859)" stroke-width=".069394"/>
 </g>
</svg>
