<?xml version="1.0" encoding="UTF-8"?>
<!-- Created with Inkscape (http://www.inkscape.org/) -->
<svg width="52.917mm" height="79.375mm" version="1.1" viewBox="0 0 52.917 79.375" xmlns="http://www.w3.org/2000/svg" xmlns:xlink="http://www.w3.org/1999/xlink">
 <defs>
  <linearGradient id="linearGradient6361" x1="-51.358" x2="-83.792" y1="271.67" y2="226.32" gradientTransform="matrix(.94227 0 0 .94227 235.82 -34.68)" gradientUnits="userSpaceOnUse">
   <stop stop-color="#e9be1f" offset="0"/>
   <stop stop-color="#ffd700" offset="1"/>
  </linearGradient>
 </defs>
 <g transform="translate(-148.95 -152.16)">
  <path x="148.94785" y="152.15543" width="52.916668" height="79.375" d="m151.59 152.16h47.625a2.6458 2.6458 45 0 1 2.6458 2.6458v74.083a2.6458 2.6458 135 0 1-2.6458 2.6458h-47.625a2.6458 2.6458 45 0 1-2.6458-2.6458v-74.083a2.6458 2.6458 135 0 1 2.6458-2.6458z" fill="#f4f4f4" stroke-width=".20646"/>
  <g transform="matrix(1 0 0 1.3245 154.1 203.89)">
   <path x="-5.1540499" y="-39.06377" width="52.916668" height="21.166666" d="m-2.5082-39.064h47.625a2.6458 2.6458 45 0 1 2.6458 2.6458v15.875a2.6458 2.6458 135 0 1-2.6458 2.6458h-47.625a2.6458 2.6458 45 0 1-2.6458-2.6458v-15.875a2.6458 2.6458 135 0 1 2.6458-2.6458z" fill="#f4f4f4" stroke-width=".26458"/>
  </g>
  <g transform="matrix(.26458 0 0 .26458 903.45 361.93)" style="shape-inside:url(#rect4576-2-3);white-space:pre" aria-label="5">
   <path d="m-2754.3-718.32q-2.75 0-5.5938-0.4375-2.8437-0.4375-5.2812-1.2188-2.4375-0.8125-4.0313-1.8438v-9.0625l0.8438-0.375q2 1.25 4.9062 2.2188 2.9063 0.96875 6.9688 0.96875 3.1562 0 5.3437-1 2.2188-1.0312 2.2188-3.5 0-2.5-2.25-3.5312-2.2188-1.0312-5.625-1.0312-2.6563 0-5.5 0.5625-2.8438 0.53125-5.4375 1.5625l-0.8438-0.375 1.875-26.062h30.312v10.781h-21.75l-0.4062 4.625q2.875-0.53125 5.8125-0.53125 8.6875 0 13.656 3.7188 5 3.6875 5 10.312t-5.1875 10.438q-5.1562 3.7812-15.031 3.7812z"/>
  </g>
  <path d="m193.1 198.42-8.0978-1.1322 3.0831-7.6856c0.48771-1.2242-0.85616-2.3741-1.9604-1.6659l-6.9236 4.4104-2.5125-7.8843c-0.20392-0.63678-0.73395-0.94965-1.345-0.94965-0.47849 0-1.0085 0.31287-1.2147 0.94817l-2.5103 7.8858-6.92-4.4082c-1.1042-0.69935-2.4455 0.37544-1.9582 1.6659l3.0808 7.6856-8.1008 1.13c-1.2882 0.18404-1.592 1.9361-0.4417 2.5545l7.2247 3.8744-5.4852 6.147c-0.80094 0.9018-0.13103 2.2821 0.98278 2.2821 0.0921 0 0.1956-0.0184 0.29683-0.0367l7.9948-1.7396-0.30374 8.2818c-0.0365 0.86132 0.65548 1.4208 1.3548 1.4208 0.37728 0 0.76413-0.16563 1.049-0.53372l5.0155-6.543 5.0229 6.543c0.21274 0.37176 0.6618 0.53372 1.0446 0.53372 0.69936 0 1.3899-0.56132 1.3531-1.4171l-0.29682-8.2818 7.9874 1.7396c1.2794 0.27605 2.1533-1.2699 1.2794-2.2453l-5.4852-6.147 7.2247-3.8811c1.1515-0.61543 0.84969-2.3675-0.4386-2.5516zm-11.617 8.0316-3.8207-0.82452 0.14722 3.9569-2.4021-3.1287-2.4021 3.1287 0.14723-3.9569-3.8163 0.82452 2.623-2.9351-3.4622-1.85 3.8722-0.54477-1.4723-3.6661 3.3127 2.1076 1.1337-3.7714 1.1963 3.7728 3.3127-2.1076-1.4098 3.6646 3.8744 0.54294-3.46 1.85z" fill="url(#linearGradient6361)" stroke-width=".073616"/>
 </g>
</svg>
